<?xml version="1.0" encoding="utf-8"?>
<!-- Generator: Adobe Illustrator 22.0.1, SVG Export Plug-In . SVG Version: 6.00 Build 0)  -->
<svg version="1.1" id="Layer_1" xmlns="http://www.w3.org/2000/svg" xmlns:xlink="http://www.w3.org/1999/xlink" x="0px" y="0px"
	 viewBox="0 0 293 293" style="enable-background:new 0 0 293 293;" xml:space="preserve">
<style type="text/css">
	.st0{fill:#FFFFFF;}
</style>
<g>
	<g>
		<rect x="7.5" y="7.5" class="st0" width="278" height="278"/>
		<path d="M278,15v263H15V15H278 M293,0H0v293h293V0L293,0z"/>
	</g>
	<polygon points="214,90 139,90 47,187 131,252 223,148 	"/>
	<g>
		<path d="M242.1,41.4c-7.6-1-16.8-2-23.3,3.1c-2.5,2-5,5.2-4.1,8.6c0.9,3.4,4.7,5,7.5,6.7c9,5.3,23,23,12.1,32.7
			c-4.5,3.9-11.3,5.2-17,6.4c-7.3,1.6-14.6,2.4-22,2.6c-1.9,0.1-1.9,3.1,0,3c11.7-0.3,24.7-1.7,35.5-6.4c8.1-3.5,11.6-10.3,9.5-18.9
			c-2.1-8.9-8.1-16.8-15.9-21.5c-2.5-1.6-6.6-3.1-6.7-6.8c-0.1-2.7,5.1-5.4,7.1-6.1c5.2-1.8,11.2-1.2,16.6-0.4
			C243.2,44.6,244.1,41.7,242.1,41.4L242.1,41.4z"/>
	</g>
	<g>
		<path d="M198.4,103.8c-5.5-15.3,16.6-18.5,26.7-18.9c11.6-0.5,23.8,1.2,32.7,9.3c1.4,1.3,3.5-0.8,2.1-2.1
			c-11-10.1-26.6-11.2-40.9-9.8c-11.1,1.1-28.8,7.4-23.5,22.3C196.2,106.4,199.1,105.7,198.4,103.8L198.4,103.8z"/>
	</g>
	<g>
		<path class="st0" d="M131.1,235.4l-3.6,4.1l-25.2-21.9l6.3-7.2l8.6,7.5c-0.9-2.5-0.3-4.9,1.6-7.1c1.3-1.5,2.9-2.5,4.6-2.9
			c1.8-0.4,3.6-0.2,5.6,0.6c2,0.8,3.8,1.9,5.4,3.3c3,2.6,4.9,5.4,5.5,8.4c0.7,3-0.2,5.8-2.5,8.5c-2.3,2.6-5,3.8-8.2,3.4
			C129.8,233.3,130.3,234.3,131.1,235.4z M126.8,226.3c1.8,1.6,3.4,1.7,4.6,0.3c0.7-0.8,0.9-1.7,0.5-2.7c-0.3-1-1.5-2.4-3.6-4.2
			c-2.3-2-3.9-3-4.9-3c-1,0-1.8,0.3-2.4,1c-0.5,0.5-0.7,1.2-0.6,2c0,0.8,0.5,1.5,1.3,2.2L126.8,226.3z"/>
		<path class="st0" d="M152.9,210.4l-6.1,7L128,201.2l5.3-6.1l3.9,3.4c-2.2-3.1-2.2-6,0-8.5c0.2-0.3,0.6-0.6,1-1l6.5,5.7
			c-0.6,0.4-1,0.8-1.4,1.2c-2.1,2.4-1.8,4.8,0.9,7.2L152.9,210.4z"/>
		<path class="st0" d="M175.7,184.1l-6.1,7c-0.9-0.5-1.9-1.2-2.8-2c0.9,3.1,0.1,5.9-2.2,8.6c-1.9,2.2-3.9,3.4-6,3.5
			c-2.1,0.1-3.9-0.5-5.3-1.7c-2-1.7-2.8-4-2.5-6.9c0.3-2.9,2.4-6.7,6.1-11.5l-0.4-0.4c-0.8-0.7-1.5-1-2.1-0.9
			c-0.6,0.1-1.2,0.6-1.8,1.3c-1.5,1.7-1.6,3.2-0.4,4.6l-6.5,6.2c-3.1-4.4-2.2-9.3,2.6-14.9c1.3-1.5,2.7-2.8,4.1-3.8
			c1.4-1,2.7-1.6,4-1.8c1.3-0.2,2.4-0.1,3.3,0.3c0.9,0.4,2.4,1.4,4.4,3.2l7.5,6.5C172.9,182.8,174.3,183.7,175.7,184.1z
			 M160.3,184.2c-2.4,3.4-2.7,5.9-1.1,7.3c1.1,1,2.2,0.9,3.3-0.4c0.7-0.8,1-1.7,1-2.6c0-1-0.8-2.1-2.4-3.5L160.3,184.2z"/>
		<path class="st0" d="M194.4,162.6L188,170l-11.8-10.2c-1-0.8-1.7-1.2-2.3-1.2c-0.5,0.1-1,0.3-1.4,0.8c-1.2,1.3-0.8,2.8,1.1,4.4
			l11.3,9.8l-6.4,7.4l-18.7-16.3l5.9-6.8l2.7,2.3c-1.2-2.8-0.6-5.4,1.6-8c1.2-1.4,2.4-2.3,3.8-2.8c1.3-0.5,2.6-0.6,3.8-0.3
			c1.2,0.3,2.8,1.4,4.8,3.1L194.4,162.6z"/>
		<path class="st0" d="M213.6,140.4l-6,6.9l-2.5-2.2c1,2.7,0.5,5.2-1.5,7.5c-1.9,2.2-4.2,3.2-7.1,3.1c-2.9-0.1-5.9-1.6-9.1-4.4
			c-3-2.6-4.8-5.4-5.4-8.3c-0.6-2.9,0.1-5.4,2-7.7c1.6-1.9,3.6-2.8,6.1-2.7l-7.9-6.9l6.3-7.2L213.6,140.4z M195.3,137.2
			c-1.7-1.5-3.1-1.5-4.3-0.1c-0.8,1-0.9,2.1-0.1,3.3c0.8,1.2,2,2.5,3.5,3.9c3,2.6,5.2,3.2,6.6,1.6c0.5-0.6,0.7-1.3,0.6-2.1
			c-0.1-0.8-0.7-1.7-1.7-2.5L195.3,137.2z"/>
	</g>
</g>
</svg>
