<?xml version="1.0" encoding="utf-8"?>
<!-- Generator: Adobe Illustrator 22.0.1, SVG Export Plug-In . SVG Version: 6.00 Build 0)  -->
<svg version="1.1" id="Layer_1" xmlns="http://www.w3.org/2000/svg" xmlns:xlink="http://www.w3.org/1999/xlink" x="0px" y="0px"
	 viewBox="0 0 293 293" style="enable-background:new 0 0 293 293;" xml:space="preserve">
<style type="text/css">
	.st0{fill:#FFFFFF;}
</style>
<g>
	<g>
		<g>
			<rect x="7.5" y="7.5" class="st0" width="278" height="278"/>
		</g>
		<g>
			<path d="M278,15v263H15V15H278 M293,0H0v293h293V0L293,0z"/>
		</g>
	</g>
	<g>
		<path d="M138,88.4v-15h16.9v14.7c18.9,2.1,31.3,11.1,37.1,27l-27.5,8.6c-2.8-7.4-8.6-11.2-17.2-11.2c-7.3,0-10.9,2.3-10.9,7
			c0,1.7,0.6,3.2,1.8,4.4c1.2,1.2,4.6,2.4,10.2,3.7c12.7,2.8,21.8,5.3,27.3,7.5c5.5,2.2,10.1,5.9,13.8,11.2
			c3.7,5.2,5.5,11.4,5.5,18.6c0,10-3.6,18.4-10.7,25.2s-16.9,10.8-29.4,12.3v15.2H138v-15.2c-21.2-2.5-34.5-13.7-40-33.5l30.8-5.7
			c2.6,9,9.3,13.5,20,13.5c8.3,0,12.5-2.3,12.5-6.9c0-2.4-1-4.3-2.9-5.6c-1.9-1.3-5.4-2.5-10.3-3.5c-19.3-3.9-31.6-9-36.8-15
			c-5.2-6.1-7.8-13.1-7.8-21c0-8.7,2.8-16.5,8.5-23.2C117.6,94.4,126.3,90.2,138,88.4z"/>
	</g>
</g>
</svg>
