<?xml version="1.0" encoding="utf-8"?>
<!-- Generator: Adobe Illustrator 22.0.1, SVG Export Plug-In . SVG Version: 6.00 Build 0)  -->
<svg version="1.1" id="Layer_1" xmlns="http://www.w3.org/2000/svg" xmlns:xlink="http://www.w3.org/1999/xlink" x="0px" y="0px"
	 viewBox="0 0 293 293" style="enable-background:new 0 0 293 293;" xml:space="preserve">
<style type="text/css">
	.st0{fill:#FFFFFF;}
</style>
<g>
	<g>
		<g>
			<rect x="7.5" y="7.5" class="st0" width="278" height="278"/>
		</g>
		<g>
			<path d="M278,15v263H15V15H278 M293,0H0v293h293V0L293,0z"/>
		</g>
	</g>
	<g>
		<polygon points="148.3,64 173.9,115.8 231,124.1 189.7,164.3 199.4,221.2 148.3,194.4 97.3,221.2 107,164.3 65.7,124.1 
			122.8,115.8 		"/>
		<path d="M200.1,222.1l-51.7-27.2l-51.7,27.2l9.9-57.6l-41.9-40.8l57.9-8.4l25.9-52.4l25.9,52.4l57.9,8.4l-41.9,40.8L200.1,222.1z
			 M148.3,193.8l0.2,0.1l50.2,26.4l-9.6-56.1l40.8-39.8l-56.4-8.2l-25.2-51.1l-25.2,51.1l-56.4,8.2l40.8,39.8l-9.6,56.1L148.3,193.8
			z"/>
	</g>
</g>
</svg>
