<?xml version="1.0" encoding="utf-8"?>
<!-- Generator: Adobe Illustrator 22.0.1, SVG Export Plug-In . SVG Version: 6.00 Build 0)  -->
<svg version="1.1" id="Layer_1" xmlns="http://www.w3.org/2000/svg" xmlns:xlink="http://www.w3.org/1999/xlink" x="0px" y="0px"
	 viewBox="0 0 471 201.6" style="enable-background:new 0 0 471 201.6;" xml:space="preserve">
<style type="text/css">
	.st0{fill:#0000FF;}
	.st1{fill:#FCEE21;}
	.st2{fill:#F7931E;}
	.st3{fill:#FFFFFF;}
	.st4{fill:#00FF00;}
	.st5{fill:#FF0000;}
</style>
<g>
	<g>
		<path d="M49.1,12.6l-10.4,33h-9.3L25,27.7l-4.5,17.9h-9.2l-10.6-33h12.7l4.4,16.2l4.1-16.2h9.6l4.1,16.1l4.6-16.1H49.1z"/>
		<path d="M85.3,45.6H72.4V25.8c0-1.8-0.2-3.1-0.6-3.7c-0.4-0.7-1.2-1-2.3-1c-0.9,0-1.7,0.3-2.3,0.8c-0.7,0.5-1,1.1-1.1,1.6
			c-0.1,0.6-0.2,1.7-0.2,3.5v18.7H52.9V1.3h12.9v15.2c2.3-3,5.4-4.6,9.1-4.6c1.9,0,3.6,0.3,5,1c1.4,0.7,2.5,1.5,3.3,2.5
			c0.8,1,1.3,2,1.6,3c0.3,1,0.4,2.9,0.4,5.6V45.6z"/>
		<path d="M125.4,45.6h-12.3c-0.3-1.4-0.5-2.9-0.5-4.6c-2.3,3.5-5.9,5.3-10.6,5.3c-3.9,0-6.8-1-8.7-3c-1.9-2-2.9-4.3-2.9-6.8
			c0-3.5,1.6-6.3,4.8-8.5c3.2-2.2,8.8-3.4,16.9-3.9v-0.7c0-1.4-0.3-2.4-1-2.9c-0.7-0.5-1.6-0.7-2.9-0.7c-3,0-4.7,1.2-5,3.6
			l-11.8-1.1c1.7-6.9,7.4-10.3,17.2-10.3c2.7,0,5.1,0.3,7.3,0.8c2.2,0.5,4,1.4,5.3,2.5c1.3,1.1,2.2,2.3,2.6,3.6
			c0.4,1.3,0.7,3.7,0.7,7.2v13.2C124.4,41.7,124.8,43.8,125.4,45.6z M112,30.2c-5.5,0.6-8.3,2.3-8.3,5.3c0,2,1.1,3,3.3,3
			c1.4,0,2.6-0.4,3.5-1.2c1-0.8,1.5-2.6,1.5-5.5V30.2z"/>
		<path d="M151.5,12.6V21h-6.6v12.2c0,1.7,0.3,2.7,0.9,3c0.6,0.3,1.3,0.5,1.9,0.5c1,0,2.3-0.2,3.7-0.6v9.2c-2.6,0.5-5.1,0.7-7.5,0.7
			c-4,0-6.9-0.9-8.8-2.6c-1.9-1.7-2.8-4.4-2.8-8.2l0-3.9V21h-4.9v-8.4h4.9l0.2-10.7l12.3-0.2v10.9H151.5z"/>
		<path d="M192.8,12.6V21h-6.6v12.2c0,1.7,0.3,2.7,0.9,3c0.6,0.3,1.3,0.5,1.9,0.5c1,0,2.3-0.2,3.7-0.6v9.2c-2.6,0.5-5.1,0.7-7.5,0.7
			c-4,0-6.9-0.9-8.8-2.6c-1.9-1.7-2.8-4.4-2.8-8.2l0-3.9V21h-4.9v-8.4h4.9l0.2-10.7l12.3-0.2v10.9H192.8z"/>
		<path d="M229.5,45.6h-12.9V25.8c0-1.8-0.2-3.1-0.6-3.7c-0.4-0.7-1.2-1-2.3-1c-0.9,0-1.7,0.3-2.3,0.8c-0.7,0.5-1,1.1-1.1,1.6
			c-0.1,0.6-0.2,1.7-0.2,3.5v18.7h-12.9V1.3h12.9v15.2c2.3-3,5.4-4.6,9.1-4.6c1.9,0,3.6,0.3,5,1c1.4,0.7,2.5,1.5,3.3,2.5
			c0.8,1,1.3,2,1.6,3c0.3,1,0.4,2.9,0.4,5.6V45.6z"/>
		<path d="M258.2,33.8l12.1,0.8c-0.7,3.2-2.5,6-5.5,8.3c-2.9,2.3-6.9,3.4-11.9,3.4c-5.6,0-10-1.6-13.3-4.8c-3.3-3.2-5-7.2-5-12
			c0-4.9,1.6-9.1,4.9-12.5c3.3-3.4,7.6-5.1,13.1-5.1c5.3,0,9.5,1.6,12.8,4.8c3.3,3.2,4.9,7.6,4.9,13.1c0,0.5,0,1.1,0,1.9h-22.1
			c0,2.1,0.4,3.6,1.1,4.6c0.7,1,2,1.5,4,1.5C256,37.8,257.7,36.5,258.2,33.8z M257.3,25.2c0-2.2-0.5-3.7-1.3-4.5
			c-0.9-0.8-2-1.2-3.2-1.2c-3.1,0-4.6,1.9-4.6,5.6H257.3z"/>
	</g>
	<g>
		<path d="M210.6,190.4l10.2-1.4c0.6,2.4,2.9,3.6,6.9,3.6c3.4,0,5-0.6,5-1.9c0-0.6-0.3-1-1-1.3c-0.6-0.3-2.2-0.6-4.6-1
			c-6.7-0.9-10.9-2.4-12.6-4.4c-1.7-2-2.5-4.2-2.5-6.6c0-3.4,1.4-6.1,4.2-8.2c2.8-2.1,6.5-3.1,11.1-3.1c8,0,13.1,2.9,15.3,8.7
			l-9.8,1.8c-0.9-1.9-2.8-2.9-5.7-2.9c-1.4,0-2.4,0.2-3.1,0.6c-0.7,0.4-1,0.8-1,1.1c0,1.1,1,1.7,3.1,2c5.4,0.6,9.1,1.2,11,1.8
			c1.9,0.6,3.6,1.8,4.9,3.4c1.4,1.7,2,3.7,2,6c0,3.6-1.5,6.5-4.5,8.6c-3,2.1-7.2,3.2-12.5,3.2C218.3,200.4,212.7,197.1,210.6,190.4z
			"/>
		<path d="M280.9,199.7H268V179c0-1.7-0.3-2.8-0.8-3.3c-0.5-0.5-1.2-0.7-2-0.7c-2.4,0-3.5,1.6-3.5,4.9v19.8h-12.9v-33h12v4.7
			c1.8-3.6,4.9-5.4,9.5-5.4c2.4,0,4.4,0.5,6.1,1.4c1.7,0.9,2.8,2.1,3.6,3.6c0.7,1.5,1.1,4,1.1,7.6V199.7z"/>
		<path d="M309.6,187.9l12.1,0.8c-0.7,3.2-2.5,6-5.5,8.3c-2.9,2.3-6.9,3.4-11.9,3.4c-5.6,0-10-1.6-13.3-4.8c-3.3-3.2-5-7.2-5-12
			c0-4.9,1.6-9.1,4.9-12.5c3.3-3.4,7.6-5.1,13.1-5.1c5.3,0,9.5,1.6,12.8,4.8c3.3,3.2,4.9,7.6,4.9,13.1c0,0.5,0,1.1,0,1.9h-22.1
			c0,2.1,0.4,3.6,1.1,4.6c0.7,1,2,1.5,4,1.5C307.4,192,309.1,190.6,309.6,187.9z M308.7,179.3c0-2.2-0.5-3.7-1.3-4.5
			c-0.9-0.8-2-1.2-3.2-1.2c-3.1,0-4.6,1.9-4.6,5.6H308.7z"/>
		<path d="M360,199.7h-12.3c-0.3-1.4-0.5-2.9-0.5-4.6c-2.3,3.5-5.9,5.3-10.6,5.3c-3.9,0-6.8-1-8.7-3c-1.9-2-2.9-4.3-2.9-6.8
			c0-3.5,1.6-6.3,4.8-8.5c3.2-2.2,8.8-3.4,16.9-3.9v-0.7c0-1.4-0.3-2.4-1-2.9c-0.7-0.5-1.6-0.7-2.9-0.7c-3,0-4.7,1.2-5,3.6
			l-11.8-1.1c1.7-6.9,7.4-10.3,17.2-10.3c2.7,0,5.1,0.3,7.3,0.8c2.2,0.5,4,1.4,5.3,2.5c1.3,1.1,2.2,2.3,2.6,3.6
			c0.4,1.3,0.7,3.7,0.7,7.2v13.2C359,195.8,359.3,198,360,199.7z M346.5,184.3c-5.5,0.6-8.3,2.3-8.3,5.3c0,2,1.1,3,3.3,3
			c1.4,0,2.6-0.4,3.5-1.2c1-0.8,1.5-2.6,1.5-5.5V184.3z"/>
		<path d="M399.8,166.8l-10,11.3l11.1,21.7h-13.4l-6.2-13.2l-3.5,4.1v9.1h-12.1v-44.3h12.1v17.9c0,0.5,0,2.5-0.1,6
			c0.8-1.1,1.6-2.1,2.4-3l8.3-9.5H399.8z"/>
		<path d="M413,171.3l-11.9-1.3c1.8-10.1,7.7-15.2,17.7-15.2c5,0,9,1.3,11.9,4c2.9,2.6,4.3,5.9,4.3,9.8c0,1.7-0.3,3.3-0.9,4.7
			c-0.6,1.4-1.3,2.6-2.2,3.5c-0.9,0.9-2.4,2.1-4.4,3.6c-1.5,1.1-2.5,1.9-2.9,2.4c-0.4,0.5-0.7,1.2-0.9,2.2H413
			c0-2.6,0.2-4.5,0.7-5.7c0.5-1.2,1.4-2.4,2.9-3.7c2.2-2,3.5-3.4,4.1-4.4c0.5-1,0.8-2.1,0.8-3.4c0-1.3-0.4-2.4-1.1-3.1
			c-0.7-0.7-1.6-1.1-2.7-1.1C414.6,163.8,413,166.3,413,171.3z M425,187.9v11.8h-12.4v-11.8H425z"/>
		<path d="M449.3,171.3l-11.9-1.3c1.8-10.1,7.7-15.2,17.7-15.2c5,0,9,1.3,11.9,4c2.9,2.6,4.3,5.9,4.3,9.8c0,1.7-0.3,3.3-0.9,4.7
			c-0.6,1.4-1.3,2.6-2.2,3.5c-0.9,0.9-2.4,2.1-4.4,3.6c-1.5,1.1-2.5,1.9-2.9,2.4c-0.4,0.5-0.7,1.2-0.9,2.2h-10.8
			c0-2.6,0.2-4.5,0.7-5.7c0.5-1.2,1.4-2.4,2.9-3.7c2.2-2,3.5-3.4,4.1-4.4c0.5-1,0.8-2.1,0.8-3.4c0-1.3-0.4-2.4-1.1-3.1
			c-0.7-0.7-1.6-1.1-2.7-1.1C450.9,163.8,449.3,166.3,449.3,171.3z M461.3,187.9v11.8h-12.4v-11.8H461.3z"/>
	</g>
	<g>
		<g>
			<rect x="17.4" y="54.5" class="st0" width="105" height="105"/>
		</g>
		<g>
			<g>
				<g>
					<path class="st1" d="M46.6,74.2c-6.4,5.4-11.3,12.1-14.7,19.6c-0.8,1.7-1.8,3.6-1.6,5.5c0.2,1.8,1.5,3.2,2.7,4.4
						c3.1,3.2,6.3,6.3,9.5,9.4c12.6,12.2,26.2,24,42.4,31c6.4,2.8,16.6,6.6,21.7-0.7c1-1.4,1.3-3,1.2-4.7c-0.1-1-0.3-2.1,0-3.1
						c0.3-0.9,1.1-1.6,1.4-2.6c0.4-1.7-1.3-3.3-2.2-4.5c-1.4-1.8-2.8-3.4-4.3-5.1c-2.8-3.2-5.4-6.5-7.4-10.4
						c-1.8-3.6-3.1-7.3-4.5-11.1c-2.5-6.8-5.3-14.2-11.3-18.7c-1.5-1.2-3.2-2-5.2-2.2c-2.3-0.2-4.6,0.3-6.8,0.6
						c-2.1,0.3-4.5,0.4-6.4-0.7c-1.6-0.9-2-2.2-2.3-3.9c-0.4-2.2-0.1-5.9-2-7.5c-2.1-1.7-5.3,0.2-7,1.4
						C48.6,72.1,47.5,73.1,46.6,74.2c-0.4,0.4,0.3,1.1,0.6,0.6c1.7-2.1,4.9-4.8,7.7-4.8c2.9,0,2.7,4.9,3,7c0.4,2.5,1.1,4.3,3.6,5.3
						c3.7,1.4,7.5-0.1,11.2-0.2c8-0.2,12.8,9.3,15.4,15.7c2.6,6.4,4.4,13.1,8.1,19.1c2.1,3.4,4.8,6.3,7.4,9.3c1.4,1.6,3,3.3,4.1,5.2
						c0.9,1.6,0.2,2.1-0.5,3.4c-0.4,0.7-0.5,1.4-0.5,2.2c0,1.8,0.5,3.4-0.3,5.2c-0.9,1.8-2.5,3.1-4.3,3.9c-4.3,1.9-9.1,0.5-13.3-1.1
						c-15.3-5.8-28.5-16.1-40.4-27.2c-3.4-3.2-6.7-6.4-10-9.7c-1.6-1.6-3.3-3.3-4.9-4.9c-0.7-0.7-1.5-1.5-2-2.4
						c-0.8-1.4-0.5-2.9,0.1-4.3c3.3-8.4,8.7-15.8,15.5-21.6C47.6,74.5,47,73.9,46.6,74.2L46.6,74.2z"/>
				</g>
			</g>
			<g>
				<g>
					<path class="st1" d="M31.3,91.6c8.8,10,18.4,19.3,28.8,27.7c5,4.1,10.1,8,15.5,11.6c5.2,3.5,10.7,6.6,16.7,8.6
						c3.2,1,6.5,1.7,9.8,1.9c1.9,0.1,5.3,0.1,5.4-2.5c0-0.6-0.9-0.6-0.9,0c-0.1,2.9-7,1.4-8.6,1.2c-2.8-0.5-5.5-1.3-8.1-2.3
						c-5.6-2.2-10.7-5.3-15.6-8.7c-10-6.9-19.4-14.8-28.2-23.2c-4.9-4.7-9.7-9.7-14.2-14.8C31.5,90.6,30.9,91.2,31.3,91.6L31.3,91.6
						z"/>
				</g>
			</g>
			<g>
				<g>
					<path class="st1" d="M37,91.4c9,7.9,18.1,15.9,27.1,23.8c4.4,3.8,8.7,7.8,13.2,11.5c4,3.3,8.2,6.3,13.1,8.3
						c2.6,1,5.3,1.8,8.1,2c2.4,0.2,5.1,0.3,7-1.3c0.4-0.4-0.2-1-0.6-0.6c-2.1,1.7-5.7,1.2-8.1,0.8c-2.5-0.4-5-1.2-7.3-2.2
						c-4.7-2.1-8.9-5.3-12.8-8.6c-8.4-7.1-16.6-14.5-24.8-21.8c-4.7-4.2-9.5-8.3-14.2-12.5C37.2,90.4,36.6,91,37,91.4L37,91.4z"/>
				</g>
			</g>
			<g>
				<g>
					<path class="st1" d="M72.6,86.6c9.1,4.4,11.6,15.2,14.3,24c0.7,2.4,1.4,4.9,2.3,7.3c0.6,1.5,1.5,3,3.1,3.7
						c1.1,0.5,3.1,0.6,3.7-0.8c0.4-0.9-0.3-1.8-1.2-1.9c-0.6,0-0.6,0.8,0,0.9c0.2,0.9-0.1,1.3-0.7,1.3c-0.4,0.1-0.7,0-1.1-0.1
						c-0.6-0.2-1.1-0.6-1.5-1c-0.7-0.8-1.2-1.8-1.5-2.8c-0.7-1.9-1.2-3.8-1.7-5.7c-1.1-3.7-2.2-7.5-3.5-11.1
						c-2.2-5.9-5.7-11.7-11.5-14.6C72.6,85.5,72.1,86.3,72.6,86.6L72.6,86.6z"/>
				</g>
			</g>
			<g>
				<g>
					<path class="st1" d="M51.8,101.8c1.8-1.9,4-3.3,6.5-3.8c2.7-0.5,5.5,0,8.2,0c4.8,0,9.6-1.1,13.9-3.2c0.5-0.2,0.1-1-0.4-0.8
						c-5.1,2.5-10.5,3.3-16.1,2.9c-4.9-0.3-9.2,0.4-12.6,4.2C50.8,101.6,51.4,102.2,51.8,101.8L51.8,101.8z"/>
				</g>
			</g>
			<g>
				<g>
					<path class="st1" d="M73.4,120.3c2.2-1.9,4.6-3.9,7.5-4.4c2.8-0.5,5.6,0.5,8.4-0.5c0.5-0.2,0.3-1-0.2-0.8
						c-3,1.1-6.2-0.1-9.3,0.7c-2.7,0.8-4.9,2.6-7,4.4C72.4,120.1,73,120.7,73.4,120.3L73.4,120.3z"/>
				</g>
			</g>
			<g>
				<g>
					<path class="st1" d="M89.2,120.3c-1.4-0.9-3.1,0.1-3.3,1.6c-0.3,2.4,2.1,4,3.8,5.3c4.5,3.4,10,5.8,15.7,4.4
						c0.5-0.1,0.3-1-0.2-0.8c-3.9,1-7.8,0.1-11.2-1.8c-1.6-0.9-3.1-1.9-4.6-3.1c-0.7-0.5-1.3-1-1.9-1.7c-0.4-0.4-0.8-1.2-0.8-1.8
						c0.1-1,0.9-2.1,2-1.4C89.2,121.4,89.6,120.6,89.2,120.3L89.2,120.3z"/>
				</g>
			</g>
			<g>
				<g>
					<path class="st1" d="M91.1,124.5c0.6,0,0.6-0.9,0-0.9C90.5,123.6,90.5,124.5,91.1,124.5L91.1,124.5z"/>
				</g>
			</g>
			<g>
				<g>
					<path class="st1" d="M93.9,126.5c0.6,0,0.6-0.9,0-0.9C93.3,125.6,93.3,126.5,93.9,126.5L93.9,126.5z"/>
				</g>
			</g>
			<g>
				<g>
					<path class="st1" d="M95.3,124.8c0.6,0,0.6-0.9,0-0.9C94.7,123.9,94.7,124.8,95.3,124.8L95.3,124.8z"/>
				</g>
			</g>
			<g>
				<g>
					<path class="st1" d="M97.2,127.6c0.6,0,0.6-0.9,0-0.9C96.7,126.7,96.7,127.6,97.2,127.6L97.2,127.6z"/>
				</g>
			</g>
			<g>
				<g>
					<path class="st1" d="M98.9,123.9c0.6,0,0.6-0.9,0-0.9C98.3,123.1,98.3,123.9,98.9,123.9L98.9,123.9z"/>
				</g>
			</g>
			<g>
				<g>
					<path class="st1" d="M101.1,127.8c0.6,0,0.6-0.9,0-0.9C100.6,127,100.6,127.8,101.1,127.8L101.1,127.8z"/>
				</g>
			</g>
			<g>
				<g>
					<path class="st1" d="M98.1,125.9c0.6,0,0.6-0.9,0-0.9C97.5,125,97.5,125.9,98.1,125.9L98.1,125.9z"/>
				</g>
			</g>
			<g>
				<g>
					<path class="st1" d="M104.5,129.2c0.6,0,0.6-0.9,0-0.9C103.9,128.4,103.9,129.2,104.5,129.2L104.5,129.2z"/>
				</g>
			</g>
			<g>
				<g>
					<path class="st1" d="M102.5,127c0.6,0,0.6-0.9,0-0.9C102,126.1,101.9,127,102.5,127L102.5,127z"/>
				</g>
			</g>
			<g>
				<g>
					<path class="st1" d="M101.7,123.9c0.6,0,0.6-0.9,0-0.9C101.1,123.1,101.1,123.9,101.7,123.9L101.7,123.9z"/>
				</g>
			</g>
			<g>
				<g>
					<path class="st1" d="M34.1,99.6c5.8,2.4,8.7,8.5,13.1,12.6c0.4,0.4,1-0.2,0.6-0.6c-4.5-4.3-7.5-10.4-13.5-12.9
						C33.8,98.6,33.6,99.4,34.1,99.6L34.1,99.6z"/>
				</g>
			</g>
			<g>
				<g>
					<path class="st1" d="M53.5,72.2c0.2,5.9,1.9,13.1,7.8,15.6c4.7,2,10.3,1.1,14.2-2.3c0.4-0.4-0.2-1-0.6-0.6
						c-3.6,3.2-9.1,4-13.5,2c-5.3-2.5-6.8-9.3-7-14.7C54.4,71.7,53.5,71.7,53.5,72.2L53.5,72.2z"/>
				</g>
			</g>
			<g>
				<g>
					<path class="st1" d="M77.6,88.3c1.2,0,2.3,0,3.5,0c-0.1-0.1-0.3-0.3-0.4-0.4c0.1,1-0.3,1.8-1.2,2.4c-0.3,0.2-0.3,0.7,0.1,0.8
						c0.9,0.2,1.5-0.2,2.4-0.5c1.5-0.5,2.2,1.1,1.9,2.3c-0.2,0.7-0.6,1.3-0.9,1.9c-0.2,0.4,0.1,0.7,0.5,0.6c0.6-0.1,1.8-0.4,2.5-0.2
						c0.2,0,0.3,0,0.5,0c0.3,0.5,0.3,1,0,1.5c-0.3,1.2-0.8,2.3-1.2,3.4c-0.1,0.3,0.2,0.6,0.5,0.5c1,0.6,1.2,1.3,0.8,2
						c0,0,0,0.1,0,0.1c-0.1,0.2-0.1,0.5-0.1,0.7c0.1,0.4,0.2,0.7,0.6,0.9c0.2,0.1,0.4,0,0.6,0.1c0.6,0.2,0.6,0.4,0.8,1
						c0.4,1.2,0.7,2.3,1.1,3.5c0.1,0.3,0.4,0.4,0.6,0.3c0.9,0.4,1.2,1,0.8,1.8c-0.1,0.6,0.7,0.8,0.8,0.2c0.3-1.4-0.2-3.8-2.1-2.8
						c0.2,0.1,0.4,0.2,0.6,0.3c-0.3-0.8-0.5-1.6-0.8-2.4c-0.2-0.7-0.3-1.6-0.7-2.2c-0.1-0.2-0.2-0.4-0.5-0.5c-0.1,0-0.3,0-0.4-0.1
						c-0.5-0.4-0.5-0.8-0.3-1.4c0.4-1.4-0.5-2.9-2.2-2.4c0.2,0.2,0.4,0.4,0.5,0.5c0.4-1.1,0.8-2.3,1.2-3.4c0.2-0.6,0.5-1.4,0.1-2
						c-0.8-1.2-3.2-0.5-4.2-0.3c0.2,0.2,0.3,0.4,0.5,0.6c0.8-1.5,1.7-3.3,0.6-4.8c-0.3-0.4-0.8-0.8-1.3-0.9c-1.2-0.2-2,0.9-3.2,0.6
						c0,0.3,0.1,0.5,0.1,0.8c1.1-0.7,1.7-1.8,1.6-3.2c0-0.2-0.2-0.4-0.4-0.4c-1.2,0-2.3,0-3.5,0C77,87.5,77,88.3,77.6,88.3
						L77.6,88.3z"/>
				</g>
			</g>
			<g>
				<g>
					<path class="st1" d="M44.5,79c1.3,2.3,3.3,4.1,5.9,2.2c2.4-1.8,4.6-4.9,5.4-7.9c0.2-0.7,0.2-1.8-0.7-2
						c-1.1-0.3-2.8,1.3-3.6,1.9c-2.8,1.9-5.5,4.1-7.4,7c-0.3,0.5,0.4,0.9,0.8,0.4c2.4-3.2,5.2-6.2,8.3-8.8c-0.2-0.1-0.5-0.1-0.7-0.2
						c0.3,1.2-0.9,2.5-1.5,3.3c-0.6,0.9-1.3,1.8-2,2.6c-0.4,0.4,0.3,1.1,0.6,0.6c1-1.2,1.9-2.4,2.7-3.7c0.7-1,1.3-1.9,1-3.1
						c-0.1-0.3-0.5-0.4-0.7-0.2c-3.1,2.7-5.9,5.7-8.4,9c0.3,0.1,0.5,0.3,0.8,0.4c1.2-1.8,2.7-3.4,4.5-4.8c1-0.8,2-1.5,3-2.2
						c0.7-0.5,2.6-2.2,2.5-0.4c-0.1,1-0.9,2.3-1.5,3.1c-0.6,1-1.3,1.9-2.1,2.8c-0.9,0.9-2.2,2.3-3.6,1.8c-1.1-0.4-1.8-1.6-2.4-2.5
						C45,78.1,44.2,78.5,44.5,79L44.5,79z"/>
				</g>
			</g>
			<g>
				<g>
					<path class="st1" d="M104.4,126.5c0.5,1.1-0.1,2.3-1.1,2.8c-0.5,0.2-0.1,1,0.4,0.8c1.5-0.7,2.1-2.5,1.4-4
						C104.9,125.6,104.2,126,104.4,126.5L104.4,126.5z"/>
				</g>
			</g>
		</g>
		<g>
			<rect x="128.7" y="54.5" class="st2" width="105" height="105"/>
		</g>
		<g>
			<g>
				<g>
					<path class="st3" d="M157.9,74.2c-6.4,5.4-11.3,12.1-14.7,19.6c-0.8,1.7-1.8,3.6-1.6,5.5c0.2,1.8,1.5,3.2,2.7,4.4
						c3.1,3.2,6.3,6.3,9.5,9.4c12.6,12.2,26.2,24,42.4,31c6.4,2.8,16.6,6.6,21.7-0.7c1-1.4,1.3-3,1.2-4.7c-0.1-1-0.3-2.1,0-3.1
						c0.3-0.9,1.1-1.6,1.4-2.6c0.4-1.7-1.3-3.3-2.2-4.5c-1.4-1.8-2.8-3.4-4.3-5.1c-2.8-3.2-5.4-6.5-7.4-10.4
						c-1.8-3.6-3.1-7.3-4.5-11.1c-2.5-6.8-5.3-14.2-11.3-18.7c-1.5-1.2-3.2-2-5.2-2.2c-2.3-0.2-4.6,0.3-6.8,0.6
						c-2.1,0.3-4.5,0.4-6.4-0.7c-1.6-0.9-2-2.2-2.3-3.9c-0.4-2.2-0.1-5.9-2-7.5c-2.1-1.7-5.3,0.2-7,1.4
						C160,72.1,158.8,73.1,157.9,74.2c-0.4,0.4,0.3,1.1,0.6,0.6c1.7-2.1,4.9-4.8,7.7-4.8c2.9,0,2.7,4.9,3,7c0.4,2.5,1.1,4.3,3.6,5.3
						c3.7,1.4,7.5-0.1,11.2-0.2c8-0.2,12.8,9.3,15.4,15.7c2.6,6.4,4.4,13.1,8.1,19.1c2.1,3.4,4.8,6.3,7.4,9.3c1.4,1.6,3,3.3,4.1,5.2
						c0.9,1.6,0.2,2.1-0.5,3.4c-0.4,0.7-0.5,1.4-0.5,2.2c0,1.8,0.5,3.4-0.3,5.2c-0.9,1.8-2.5,3.1-4.3,3.9c-4.3,1.9-9.1,0.5-13.3-1.1
						c-15.3-5.8-28.5-16.1-40.4-27.2c-3.4-3.2-6.7-6.4-10-9.7c-1.6-1.6-3.3-3.3-4.9-4.9c-0.7-0.7-1.5-1.5-2-2.4
						c-0.8-1.4-0.5-2.9,0.1-4.3c3.3-8.4,8.7-15.8,15.5-21.6C159,74.5,158.3,73.9,157.9,74.2L157.9,74.2z"/>
				</g>
			</g>
			<g>
				<g>
					<path class="st3" d="M142.6,91.6c8.8,10,18.4,19.3,28.8,27.7c5,4.1,10.1,8,15.5,11.6c5.2,3.5,10.7,6.6,16.7,8.6
						c3.2,1,6.5,1.7,9.8,1.9c1.9,0.1,5.3,0.1,5.4-2.5c0-0.6-0.9-0.6-0.9,0c-0.1,2.9-7,1.4-8.6,1.2c-2.8-0.5-5.5-1.3-8.1-2.3
						c-5.6-2.2-10.7-5.3-15.6-8.7c-10-6.9-19.4-14.8-28.2-23.2c-4.9-4.7-9.7-9.7-14.2-14.8C142.8,90.6,142.2,91.2,142.6,91.6
						L142.6,91.6z"/>
				</g>
			</g>
			<g>
				<g>
					<path class="st3" d="M148.3,91.4c9,7.9,18.1,15.9,27.1,23.8c4.4,3.8,8.7,7.8,13.2,11.5c4,3.3,8.2,6.3,13.1,8.3
						c2.6,1,5.3,1.8,8.1,2c2.4,0.2,5.1,0.3,7-1.3c0.4-0.4-0.2-1-0.6-0.6c-2.1,1.7-5.7,1.2-8.1,0.8c-2.5-0.4-5-1.2-7.3-2.2
						c-4.7-2.1-8.9-5.3-12.8-8.6c-8.4-7.1-16.6-14.5-24.8-21.8c-4.7-4.2-9.5-8.3-14.2-12.5C148.5,90.4,147.9,91,148.3,91.4
						L148.3,91.4z"/>
				</g>
			</g>
			<g>
				<g>
					<path class="st3" d="M183.9,86.6c9.1,4.4,11.6,15.2,14.3,24c0.7,2.4,1.4,4.9,2.3,7.3c0.6,1.5,1.5,3,3.1,3.7
						c1.1,0.5,3.1,0.6,3.7-0.8c0.4-0.9-0.3-1.8-1.2-1.9c-0.6,0-0.6,0.8,0,0.9c0.2,0.9-0.1,1.3-0.7,1.3c-0.4,0.1-0.7,0-1.1-0.1
						c-0.6-0.2-1.1-0.6-1.5-1c-0.7-0.8-1.2-1.8-1.5-2.8c-0.7-1.9-1.2-3.8-1.7-5.7c-1.1-3.7-2.2-7.5-3.5-11.1
						c-2.2-5.9-5.7-11.7-11.5-14.6C183.9,85.5,183.4,86.3,183.9,86.6L183.9,86.6z"/>
				</g>
			</g>
			<g>
				<g>
					<path class="st3" d="M163.1,101.8c1.8-1.9,4-3.3,6.5-3.8c2.7-0.5,5.5,0,8.2,0c4.8,0,9.6-1.1,13.9-3.2c0.5-0.2,0.1-1-0.4-0.8
						c-5.1,2.5-10.5,3.3-16.1,2.9c-4.9-0.3-9.2,0.4-12.6,4.2C162.1,101.6,162.7,102.2,163.1,101.8L163.1,101.8z"/>
				</g>
			</g>
			<g>
				<g>
					<path class="st3" d="M184.7,120.3c2.2-1.9,4.6-3.9,7.5-4.4c2.8-0.5,5.6,0.5,8.4-0.5c0.5-0.2,0.3-1-0.2-0.8
						c-3,1.1-6.2-0.1-9.3,0.7c-2.7,0.8-4.9,2.6-7,4.4C183.7,120.1,184.3,120.7,184.7,120.3L184.7,120.3z"/>
				</g>
			</g>
			<g>
				<g>
					<path class="st3" d="M200.5,120.3c-1.4-0.9-3.1,0.1-3.3,1.6c-0.3,2.4,2.1,4,3.8,5.3c4.5,3.4,10,5.8,15.7,4.4
						c0.5-0.1,0.3-1-0.2-0.8c-3.9,1-7.8,0.1-11.2-1.8c-1.6-0.9-3.1-1.9-4.6-3.1c-0.7-0.5-1.3-1-1.9-1.7c-0.4-0.4-0.8-1.2-0.8-1.8
						c0.1-1,0.9-2.1,2-1.4C200.5,121.4,200.9,120.6,200.5,120.3L200.5,120.3z"/>
				</g>
			</g>
			<g>
				<g>
					<path class="st3" d="M202.4,124.5c0.6,0,0.6-0.9,0-0.9C201.8,123.6,201.8,124.5,202.4,124.5L202.4,124.5z"/>
				</g>
			</g>
			<g>
				<g>
					<path class="st3" d="M205.2,126.5c0.6,0,0.6-0.9,0-0.9C204.6,125.6,204.6,126.5,205.2,126.5L205.2,126.5z"/>
				</g>
			</g>
			<g>
				<g>
					<path class="st3" d="M206.6,124.8c0.6,0,0.6-0.9,0-0.9C206,123.9,206,124.8,206.6,124.8L206.6,124.8z"/>
				</g>
			</g>
			<g>
				<g>
					<path class="st3" d="M208.5,127.6c0.6,0,0.6-0.9,0-0.9C208,126.7,208,127.6,208.5,127.6L208.5,127.6z"/>
				</g>
			</g>
			<g>
				<g>
					<path class="st3" d="M210.2,123.9c0.6,0,0.6-0.9,0-0.9C209.6,123.1,209.6,123.9,210.2,123.9L210.2,123.9z"/>
				</g>
			</g>
			<g>
				<g>
					<path class="st3" d="M212.4,127.8c0.6,0,0.6-0.9,0-0.9C211.9,127,211.9,127.8,212.4,127.8L212.4,127.8z"/>
				</g>
			</g>
			<g>
				<g>
					<path class="st3" d="M209.4,125.9c0.6,0,0.6-0.9,0-0.9C208.8,125,208.8,125.9,209.4,125.9L209.4,125.9z"/>
				</g>
			</g>
			<g>
				<g>
					<path class="st3" d="M215.8,129.2c0.6,0,0.6-0.9,0-0.9C215.2,128.4,215.2,129.2,215.8,129.2L215.8,129.2z"/>
				</g>
			</g>
			<g>
				<g>
					<path class="st3" d="M213.8,127c0.6,0,0.6-0.9,0-0.9C213.3,126.1,213.3,127,213.8,127L213.8,127z"/>
				</g>
			</g>
			<g>
				<g>
					<path class="st3" d="M213,123.9c0.6,0,0.6-0.9,0-0.9C212.4,123.1,212.4,123.9,213,123.9L213,123.9z"/>
				</g>
			</g>
			<g>
				<g>
					<path class="st3" d="M145.4,99.6c5.8,2.4,8.7,8.5,13.1,12.6c0.4,0.4,1-0.2,0.6-0.6c-4.5-4.3-7.5-10.4-13.5-12.9
						C145.1,98.6,144.9,99.4,145.4,99.6L145.4,99.6z"/>
				</g>
			</g>
			<g>
				<g>
					<path class="st3" d="M164.9,72.2c0.2,5.9,1.9,13.1,7.8,15.6c4.7,2,10.3,1.1,14.2-2.3c0.4-0.4-0.2-1-0.6-0.6
						c-3.6,3.2-9.1,4-13.5,2c-5.3-2.5-6.8-9.3-7-14.7C165.7,71.7,164.8,71.7,164.9,72.2L164.9,72.2z"/>
				</g>
			</g>
			<g>
				<g>
					<path class="st3" d="M188.9,88.3c1.2,0,2.3,0,3.5,0c-0.1-0.1-0.3-0.3-0.4-0.4c0.1,1-0.3,1.8-1.2,2.4c-0.3,0.2-0.3,0.7,0.1,0.8
						c0.9,0.2,1.5-0.2,2.4-0.5c1.5-0.5,2.2,1.1,1.9,2.3c-0.2,0.7-0.6,1.3-0.9,1.9c-0.2,0.4,0.1,0.7,0.5,0.6c0.6-0.1,1.8-0.4,2.5-0.2
						c0.2,0,0.3,0,0.5,0c0.3,0.5,0.3,1,0,1.5c-0.3,1.2-0.8,2.3-1.2,3.4c-0.1,0.3,0.2,0.6,0.5,0.5c1,0.6,1.2,1.3,0.8,2
						c0,0,0,0.1,0,0.1c-0.1,0.2-0.1,0.5-0.1,0.7c0.1,0.4,0.2,0.7,0.6,0.9c0.2,0.1,0.4,0,0.6,0.1c0.6,0.2,0.6,0.4,0.8,1
						c0.4,1.2,0.7,2.3,1.1,3.5c0.1,0.3,0.4,0.4,0.6,0.3c0.9,0.4,1.2,1,0.8,1.8c-0.1,0.6,0.7,0.8,0.8,0.2c0.3-1.4-0.2-3.8-2.1-2.8
						c0.2,0.1,0.4,0.2,0.6,0.3c-0.3-0.8-0.5-1.6-0.8-2.4c-0.2-0.7-0.3-1.6-0.7-2.2c-0.1-0.2-0.2-0.4-0.5-0.5c-0.1,0-0.3,0-0.4-0.1
						c-0.5-0.4-0.5-0.8-0.3-1.4c0.4-1.4-0.5-2.9-2.2-2.4c0.2,0.2,0.4,0.4,0.5,0.5c0.4-1.1,0.8-2.3,1.2-3.4c0.2-0.6,0.5-1.4,0.1-2
						c-0.8-1.2-3.2-0.5-4.2-0.3c0.2,0.2,0.3,0.4,0.5,0.6c0.8-1.5,1.7-3.3,0.6-4.8c-0.3-0.4-0.8-0.8-1.3-0.9c-1.2-0.2-2,0.9-3.2,0.6
						c0,0.3,0.1,0.5,0.1,0.8c1.1-0.7,1.7-1.8,1.6-3.2c0-0.2-0.2-0.4-0.4-0.4c-1.2,0-2.3,0-3.5,0C188.3,87.5,188.3,88.3,188.9,88.3
						L188.9,88.3z"/>
				</g>
			</g>
			<g>
				<g>
					<path class="st3" d="M155.8,79c1.3,2.3,3.3,4.1,5.9,2.2c2.4-1.8,4.6-4.9,5.4-7.9c0.2-0.7,0.2-1.8-0.7-2
						c-1.1-0.3-2.8,1.3-3.6,1.9c-2.8,1.9-5.5,4.1-7.4,7c-0.3,0.5,0.4,0.9,0.8,0.4c2.4-3.2,5.2-6.2,8.3-8.8c-0.2-0.1-0.5-0.1-0.7-0.2
						c0.3,1.2-0.9,2.5-1.5,3.3c-0.6,0.9-1.3,1.8-2,2.6c-0.4,0.4,0.3,1.1,0.6,0.6c1-1.2,1.9-2.4,2.7-3.7c0.7-1,1.3-1.9,1-3.1
						c-0.1-0.3-0.5-0.4-0.7-0.2c-3.1,2.7-5.9,5.7-8.4,9c0.3,0.1,0.5,0.3,0.8,0.4c1.2-1.8,2.7-3.4,4.5-4.8c1-0.8,2-1.5,3-2.2
						c0.7-0.5,2.6-2.2,2.5-0.4c-0.1,1-0.9,2.3-1.5,3.1c-0.6,1-1.3,1.9-2.1,2.8c-0.9,0.9-2.2,2.3-3.6,1.8c-1.1-0.4-1.8-1.6-2.4-2.5
						C156.3,78.1,155.5,78.5,155.8,79L155.8,79z"/>
				</g>
			</g>
			<g>
				<g>
					<path class="st3" d="M215.7,126.5c0.5,1.1-0.1,2.3-1.1,2.8c-0.5,0.2-0.1,1,0.4,0.8c1.5-0.7,2.1-2.5,1.4-4
						C216.2,125.6,215.5,126,215.7,126.5L215.7,126.5z"/>
				</g>
			</g>
		</g>
		<g>
			<rect x="240" y="54.5" class="st4" width="105" height="105"/>
		</g>
		<g>
			<g>
				<g>
					<path class="st0" d="M269.2,74.2c-6.4,5.4-11.3,12.1-14.7,19.6c-0.8,1.7-1.8,3.6-1.6,5.5c0.2,1.8,1.5,3.2,2.7,4.4
						c3.1,3.2,6.3,6.3,9.5,9.4c12.6,12.2,26.2,24,42.4,31c6.4,2.8,16.6,6.6,21.7-0.7c1-1.4,1.3-3,1.2-4.7c-0.1-1-0.3-2.1,0-3.1
						c0.3-0.9,1.1-1.6,1.4-2.6c0.4-1.7-1.3-3.3-2.2-4.5c-1.4-1.8-2.8-3.4-4.3-5.1c-2.8-3.2-5.4-6.5-7.4-10.4
						c-1.8-3.6-3.1-7.3-4.5-11.1c-2.5-6.8-5.3-14.2-11.3-18.7c-1.5-1.2-3.2-2-5.2-2.2c-2.3-0.2-4.6,0.3-6.8,0.6
						c-2.1,0.3-4.5,0.4-6.4-0.7c-1.6-0.9-2-2.2-2.3-3.9c-0.4-2.2-0.1-5.9-2-7.5c-2.1-1.7-5.3,0.2-7,1.4
						C271.3,72.1,270.1,73.1,269.2,74.2c-0.4,0.4,0.3,1.1,0.6,0.6c1.7-2.1,4.9-4.8,7.7-4.8c2.9,0,2.7,4.9,3,7
						c0.4,2.5,1.1,4.3,3.6,5.3c3.7,1.4,7.5-0.1,11.2-0.2c8-0.2,12.8,9.3,15.4,15.7c2.6,6.4,4.4,13.1,8.1,19.1
						c2.1,3.4,4.8,6.3,7.4,9.3c1.4,1.6,3,3.3,4.1,5.2c0.9,1.6,0.2,2.1-0.5,3.4c-0.4,0.7-0.5,1.4-0.5,2.2c0,1.8,0.5,3.4-0.3,5.2
						c-0.9,1.8-2.5,3.1-4.3,3.9c-4.3,1.9-9.1,0.5-13.3-1.1c-15.3-5.8-28.5-16.1-40.4-27.2c-3.4-3.2-6.7-6.4-10-9.7
						c-1.6-1.6-3.3-3.3-4.9-4.9c-0.7-0.7-1.5-1.5-2-2.4c-0.8-1.4-0.5-2.9,0.1-4.3c3.3-8.4,8.7-15.8,15.5-21.6
						C270.3,74.5,269.6,73.9,269.2,74.2L269.2,74.2z"/>
				</g>
			</g>
			<g>
				<g>
					<path class="st0" d="M253.9,91.6c8.8,10,18.4,19.3,28.8,27.7c5,4.1,10.1,8,15.5,11.6c5.2,3.5,10.7,6.6,16.7,8.6
						c3.2,1,6.5,1.7,9.8,1.9c1.9,0.1,5.3,0.1,5.4-2.5c0-0.6-0.9-0.6-0.9,0c-0.1,2.9-7,1.4-8.6,1.2c-2.8-0.5-5.5-1.3-8.1-2.3
						c-5.6-2.2-10.7-5.3-15.6-8.7c-10-6.9-19.4-14.8-28.2-23.2c-4.9-4.7-9.7-9.7-14.2-14.8C254.1,90.6,253.5,91.2,253.9,91.6
						L253.9,91.6z"/>
				</g>
			</g>
			<g>
				<g>
					<path class="st0" d="M259.6,91.4c9,7.9,18.1,15.9,27.1,23.8c4.4,3.8,8.7,7.8,13.2,11.5c4,3.3,8.2,6.3,13.1,8.3
						c2.6,1,5.3,1.8,8.1,2c2.4,0.2,5.1,0.3,7-1.3c0.4-0.4-0.2-1-0.6-0.6c-2.1,1.7-5.7,1.2-8.1,0.8c-2.5-0.4-5-1.2-7.3-2.2
						c-4.7-2.1-8.9-5.3-12.8-8.6c-8.4-7.1-16.6-14.5-24.8-21.8c-4.7-4.2-9.5-8.3-14.2-12.5C259.8,90.4,259.2,91,259.6,91.4
						L259.6,91.4z"/>
				</g>
			</g>
			<g>
				<g>
					<path class="st0" d="M295.2,86.6c9.1,4.4,11.6,15.2,14.3,24c0.7,2.4,1.4,4.9,2.3,7.3c0.6,1.5,1.5,3,3.1,3.7
						c1.1,0.5,3.1,0.6,3.7-0.8c0.4-0.9-0.3-1.8-1.2-1.9c-0.6,0-0.6,0.8,0,0.9c0.2,0.9-0.1,1.3-0.7,1.3c-0.4,0.1-0.7,0-1.1-0.1
						c-0.6-0.2-1.1-0.6-1.5-1c-0.7-0.8-1.2-1.8-1.5-2.8c-0.7-1.9-1.2-3.8-1.7-5.7c-1.1-3.7-2.2-7.5-3.5-11.1
						c-2.2-5.9-5.7-11.7-11.5-14.6C295.2,85.5,294.7,86.3,295.2,86.6L295.2,86.6z"/>
				</g>
			</g>
			<g>
				<g>
					<path class="st0" d="M274.4,101.8c1.8-1.9,4-3.3,6.5-3.8c2.7-0.5,5.5,0,8.2,0c4.8,0,9.6-1.1,13.9-3.2c0.5-0.2,0.1-1-0.4-0.8
						c-5.1,2.5-10.5,3.3-16.1,2.9c-4.9-0.3-9.2,0.4-12.6,4.2C273.4,101.6,274,102.2,274.4,101.8L274.4,101.8z"/>
				</g>
			</g>
			<g>
				<g>
					<path class="st0" d="M296,120.3c2.2-1.9,4.6-3.9,7.5-4.4c2.8-0.5,5.6,0.5,8.4-0.5c0.5-0.2,0.3-1-0.2-0.8
						c-3,1.1-6.2-0.1-9.3,0.7c-2.7,0.8-4.9,2.6-7,4.4C295,120.1,295.6,120.7,296,120.3L296,120.3z"/>
				</g>
			</g>
			<g>
				<g>
					<path class="st0" d="M311.8,120.3c-1.4-0.9-3.1,0.1-3.3,1.6c-0.3,2.4,2.1,4,3.8,5.3c4.5,3.4,10,5.8,15.7,4.4
						c0.5-0.1,0.3-1-0.2-0.8c-3.9,1-7.8,0.1-11.2-1.8c-1.6-0.9-3.1-1.9-4.6-3.1c-0.7-0.5-1.3-1-1.9-1.7c-0.4-0.4-0.8-1.2-0.8-1.8
						c0.1-1,0.9-2.1,2-1.4C311.8,121.4,312.2,120.6,311.8,120.3L311.8,120.3z"/>
				</g>
			</g>
			<g>
				<g>
					<path class="st0" d="M313.7,124.5c0.6,0,0.6-0.9,0-0.9C313.1,123.6,313.1,124.5,313.7,124.5L313.7,124.5z"/>
				</g>
			</g>
			<g>
				<g>
					<path class="st0" d="M316.5,126.5c0.6,0,0.6-0.9,0-0.9C315.9,125.6,315.9,126.5,316.5,126.5L316.5,126.5z"/>
				</g>
			</g>
			<g>
				<g>
					<path class="st0" d="M317.9,124.8c0.6,0,0.6-0.9,0-0.9C317.3,123.9,317.3,124.8,317.9,124.8L317.9,124.8z"/>
				</g>
			</g>
			<g>
				<g>
					<path class="st0" d="M319.8,127.6c0.6,0,0.6-0.9,0-0.9C319.3,126.7,319.3,127.6,319.8,127.6L319.8,127.6z"/>
				</g>
			</g>
			<g>
				<g>
					<path class="st0" d="M321.5,123.9c0.6,0,0.6-0.9,0-0.9C320.9,123.1,320.9,123.9,321.5,123.9L321.5,123.9z"/>
				</g>
			</g>
			<g>
				<g>
					<path class="st0" d="M323.7,127.8c0.6,0,0.6-0.9,0-0.9C323.2,127,323.2,127.8,323.7,127.8L323.7,127.8z"/>
				</g>
			</g>
			<g>
				<g>
					<path class="st0" d="M320.7,125.9c0.6,0,0.6-0.9,0-0.9C320.1,125,320.1,125.9,320.7,125.9L320.7,125.9z"/>
				</g>
			</g>
			<g>
				<g>
					<path class="st0" d="M327.1,129.2c0.6,0,0.6-0.9,0-0.9C326.5,128.4,326.5,129.2,327.1,129.2L327.1,129.2z"/>
				</g>
			</g>
			<g>
				<g>
					<path class="st0" d="M325.1,127c0.6,0,0.6-0.9,0-0.9C324.6,126.1,324.6,127,325.1,127L325.1,127z"/>
				</g>
			</g>
			<g>
				<g>
					<path class="st0" d="M324.3,123.9c0.6,0,0.6-0.9,0-0.9C323.7,123.1,323.7,123.9,324.3,123.9L324.3,123.9z"/>
				</g>
			</g>
			<g>
				<g>
					<path class="st0" d="M256.7,99.6c5.8,2.4,8.7,8.5,13.1,12.6c0.4,0.4,1-0.2,0.6-0.6c-4.5-4.3-7.5-10.4-13.5-12.9
						C256.5,98.6,256.2,99.4,256.7,99.6L256.7,99.6z"/>
				</g>
			</g>
			<g>
				<g>
					<path class="st0" d="M276.2,72.2c0.2,5.9,1.9,13.1,7.8,15.6c4.7,2,10.3,1.1,14.2-2.3c0.4-0.4-0.2-1-0.6-0.6
						c-3.6,3.2-9.1,4-13.5,2c-5.3-2.5-6.8-9.3-7-14.7C277,71.7,276.1,71.7,276.2,72.2L276.2,72.2z"/>
				</g>
			</g>
			<g>
				<g>
					<path class="st0" d="M300.2,88.3c1.2,0,2.3,0,3.5,0c-0.1-0.1-0.3-0.3-0.4-0.4c0.1,1-0.3,1.8-1.2,2.4c-0.3,0.2-0.3,0.7,0.1,0.8
						c0.9,0.2,1.5-0.2,2.4-0.5c1.5-0.5,2.2,1.1,1.9,2.3c-0.2,0.7-0.6,1.3-0.9,1.9c-0.2,0.4,0.1,0.7,0.5,0.6c0.6-0.1,1.8-0.4,2.5-0.2
						c0.2,0,0.3,0,0.5,0c0.3,0.5,0.3,1,0,1.5c-0.3,1.2-0.8,2.3-1.2,3.4c-0.1,0.3,0.2,0.6,0.5,0.5c1,0.6,1.2,1.3,0.8,2
						c0,0,0,0.1,0,0.1c-0.1,0.2-0.1,0.5-0.1,0.7c0.1,0.4,0.2,0.7,0.6,0.9c0.2,0.1,0.4,0,0.6,0.1c0.6,0.2,0.6,0.4,0.8,1
						c0.4,1.2,0.7,2.3,1.1,3.5c0.1,0.3,0.4,0.4,0.6,0.3c0.9,0.4,1.2,1,0.8,1.8c-0.1,0.6,0.7,0.8,0.8,0.2c0.3-1.4-0.2-3.8-2.1-2.8
						c0.2,0.1,0.4,0.2,0.6,0.3c-0.3-0.8-0.5-1.6-0.8-2.4c-0.2-0.7-0.3-1.6-0.7-2.2c-0.1-0.2-0.2-0.4-0.5-0.5c-0.1,0-0.3,0-0.4-0.1
						c-0.5-0.4-0.5-0.8-0.3-1.4c0.4-1.4-0.5-2.9-2.2-2.4c0.2,0.2,0.4,0.4,0.5,0.5c0.4-1.1,0.8-2.3,1.2-3.4c0.2-0.6,0.5-1.4,0.1-2
						c-0.8-1.2-3.2-0.5-4.2-0.3c0.2,0.2,0.3,0.4,0.5,0.6c0.8-1.5,1.7-3.3,0.6-4.8c-0.3-0.4-0.8-0.8-1.3-0.9c-1.2-0.2-2,0.9-3.2,0.6
						c0,0.3,0.1,0.5,0.1,0.8c1.1-0.7,1.7-1.8,1.6-3.2c0-0.2-0.2-0.4-0.4-0.4c-1.2,0-2.3,0-3.5,0C299.6,87.5,299.6,88.3,300.2,88.3
						L300.2,88.3z"/>
				</g>
			</g>
			<g>
				<g>
					<path class="st0" d="M267.1,79c1.3,2.3,3.3,4.1,5.9,2.2c2.4-1.8,4.6-4.9,5.4-7.9c0.2-0.7,0.2-1.8-0.7-2
						c-1.1-0.3-2.8,1.3-3.6,1.9c-2.8,1.9-5.5,4.1-7.4,7c-0.3,0.5,0.4,0.9,0.8,0.4c2.4-3.2,5.2-6.2,8.3-8.8c-0.2-0.1-0.5-0.1-0.7-0.2
						c0.3,1.2-0.9,2.5-1.5,3.3c-0.6,0.9-1.3,1.8-2,2.6c-0.4,0.4,0.3,1.1,0.6,0.6c1-1.2,1.9-2.4,2.7-3.7c0.7-1,1.3-1.9,1-3.1
						c-0.1-0.3-0.5-0.4-0.7-0.2c-3.1,2.7-5.9,5.7-8.4,9c0.3,0.1,0.5,0.3,0.8,0.4c1.2-1.8,2.7-3.4,4.5-4.8c1-0.8,2-1.5,3-2.2
						c0.7-0.5,2.6-2.2,2.5-0.4c-0.1,1-0.9,2.3-1.5,3.1c-0.6,1-1.3,1.9-2.1,2.8c-0.9,0.9-2.2,2.3-3.6,1.8c-1.1-0.4-1.8-1.6-2.4-2.5
						C267.6,78.1,266.8,78.5,267.1,79L267.1,79z"/>
				</g>
			</g>
			<g>
				<g>
					<path class="st0" d="M327,126.5c0.5,1.1-0.1,2.3-1.1,2.8c-0.5,0.2-0.1,1,0.4,0.8c1.5-0.7,2.1-2.5,1.4-4
						C327.5,125.6,326.8,126,327,126.5L327,126.5z"/>
				</g>
			</g>
		</g>
		<g>
			<rect x="351.4" y="54.5" class="st1" width="105" height="105"/>
		</g>
		<g>
			<g>
				<g>
					<path class="st5" d="M380.5,74.2c-6.4,5.4-11.3,12.1-14.7,19.6c-0.8,1.7-1.8,3.6-1.6,5.5c0.2,1.8,1.5,3.2,2.7,4.4
						c3.1,3.2,6.3,6.3,9.5,9.4c12.6,12.2,26.2,24,42.4,31c6.4,2.8,16.6,6.6,21.7-0.7c1-1.4,1.3-3,1.2-4.7c-0.1-1-0.3-2.1,0-3.1
						c0.3-0.9,1.1-1.6,1.4-2.6c0.4-1.7-1.3-3.3-2.2-4.5c-1.4-1.8-2.8-3.4-4.3-5.1c-2.8-3.2-5.4-6.5-7.4-10.4
						c-1.8-3.6-3.1-7.3-4.5-11.1c-2.5-6.8-5.3-14.2-11.3-18.7c-1.5-1.2-3.2-2-5.2-2.2c-2.3-0.2-4.6,0.3-6.8,0.6
						c-2.1,0.3-4.5,0.4-6.4-0.7c-1.6-0.9-2-2.2-2.3-3.9c-0.4-2.2-0.1-5.9-2-7.5c-2.1-1.7-5.3,0.2-7,1.4
						C382.6,72.1,381.4,73.1,380.5,74.2c-0.4,0.4,0.3,1.1,0.6,0.6c1.7-2.1,4.9-4.8,7.7-4.8c2.9,0,2.7,4.9,3,7
						c0.4,2.5,1.1,4.3,3.6,5.3c3.7,1.4,7.5-0.1,11.2-0.2c8-0.2,12.8,9.3,15.4,15.7c2.6,6.4,4.4,13.1,8.1,19.1
						c2.1,3.4,4.8,6.3,7.4,9.3c1.4,1.6,3,3.3,4.1,5.2c0.9,1.6,0.2,2.1-0.5,3.4c-0.4,0.7-0.5,1.4-0.5,2.2c0,1.8,0.5,3.4-0.3,5.2
						c-0.9,1.8-2.5,3.1-4.3,3.9c-4.3,1.9-9.1,0.5-13.3-1.1c-15.3-5.8-28.5-16.1-40.4-27.2c-3.4-3.2-6.7-6.4-10-9.7
						c-1.6-1.6-3.3-3.3-4.9-4.9c-0.7-0.7-1.5-1.5-2-2.4c-0.8-1.4-0.5-2.9,0.1-4.3c3.3-8.4,8.7-15.8,15.5-21.6
						C381.6,74.5,380.9,73.9,380.5,74.2L380.5,74.2z"/>
				</g>
			</g>
			<g>
				<g>
					<path class="st5" d="M365.2,91.6c8.8,10,18.4,19.3,28.8,27.7c5,4.1,10.1,8,15.5,11.6c5.2,3.5,10.7,6.6,16.7,8.6
						c3.2,1,6.5,1.7,9.8,1.9c1.9,0.1,5.3,0.1,5.4-2.5c0-0.6-0.9-0.6-0.9,0c-0.1,2.9-7,1.4-8.6,1.2c-2.8-0.5-5.5-1.3-8.1-2.3
						c-5.6-2.2-10.7-5.3-15.6-8.7c-10-6.9-19.4-14.8-28.2-23.2c-4.9-4.7-9.7-9.7-14.2-14.8C365.4,90.6,364.8,91.2,365.2,91.6
						L365.2,91.6z"/>
				</g>
			</g>
			<g>
				<g>
					<path class="st5" d="M370.9,91.4c9,7.9,18.1,15.9,27.1,23.8c4.4,3.8,8.7,7.8,13.2,11.5c4,3.3,8.2,6.3,13.1,8.3
						c2.6,1,5.3,1.8,8.1,2c2.4,0.2,5.1,0.3,7-1.3c0.4-0.4-0.2-1-0.6-0.6c-2.1,1.7-5.7,1.2-8.1,0.8c-2.5-0.4-5-1.2-7.3-2.2
						c-4.7-2.1-8.9-5.3-12.8-8.6c-8.4-7.1-16.6-14.5-24.8-21.8c-4.7-4.2-9.5-8.3-14.2-12.5C371.1,90.4,370.5,91,370.9,91.4
						L370.9,91.4z"/>
				</g>
			</g>
			<g>
				<g>
					<path class="st5" d="M406.6,86.6c9.1,4.4,11.6,15.2,14.3,24c0.7,2.4,1.4,4.9,2.3,7.3c0.6,1.5,1.5,3,3.1,3.7
						c1.1,0.5,3.1,0.6,3.7-0.8c0.4-0.9-0.3-1.8-1.2-1.9c-0.6,0-0.6,0.8,0,0.9c0.2,0.9-0.1,1.3-0.7,1.3c-0.4,0.1-0.7,0-1.1-0.1
						c-0.6-0.2-1.1-0.6-1.5-1c-0.7-0.8-1.2-1.8-1.5-2.8c-0.7-1.9-1.2-3.8-1.7-5.7c-1.1-3.7-2.2-7.5-3.5-11.1
						c-2.2-5.9-5.7-11.7-11.5-14.6C406.5,85.5,406,86.3,406.6,86.6L406.6,86.6z"/>
				</g>
			</g>
			<g>
				<g>
					<path class="st5" d="M385.7,101.8c1.8-1.9,4-3.3,6.5-3.8c2.7-0.5,5.5,0,8.2,0c4.8,0,9.6-1.1,13.9-3.2c0.5-0.2,0.1-1-0.4-0.8
						c-5.1,2.5-10.5,3.3-16.1,2.9c-4.9-0.3-9.2,0.4-12.6,4.2C384.7,101.6,385.3,102.2,385.7,101.8L385.7,101.8z"/>
				</g>
			</g>
			<g>
				<g>
					<path class="st5" d="M407.3,120.3c2.2-1.9,4.6-3.9,7.5-4.4c2.8-0.5,5.6,0.5,8.4-0.5c0.5-0.2,0.3-1-0.2-0.8
						c-3,1.1-6.2-0.1-9.3,0.7c-2.7,0.8-4.9,2.6-7,4.4C406.3,120.1,406.9,120.7,407.3,120.3L407.3,120.3z"/>
				</g>
			</g>
			<g>
				<g>
					<path class="st5" d="M423.1,120.3c-1.4-0.9-3.1,0.1-3.3,1.6c-0.3,2.4,2.1,4,3.8,5.3c4.5,3.4,10,5.8,15.7,4.4
						c0.5-0.1,0.3-1-0.2-0.8c-3.9,1-7.8,0.1-11.2-1.8c-1.6-0.9-3.1-1.9-4.6-3.1c-0.7-0.5-1.3-1-1.9-1.7c-0.4-0.4-0.8-1.2-0.8-1.8
						c0.1-1,0.9-2.1,2-1.4C423.1,121.4,423.6,120.6,423.1,120.3L423.1,120.3z"/>
				</g>
			</g>
			<g>
				<g>
					<path class="st5" d="M425,124.5c0.6,0,0.6-0.9,0-0.9C424.4,123.6,424.4,124.5,425,124.5L425,124.5z"/>
				</g>
			</g>
			<g>
				<g>
					<path class="st5" d="M427.8,126.5c0.6,0,0.6-0.9,0-0.9C427.2,125.6,427.2,126.5,427.8,126.5L427.8,126.5z"/>
				</g>
			</g>
			<g>
				<g>
					<path class="st5" d="M429.2,124.8c0.6,0,0.6-0.9,0-0.9C428.6,123.9,428.6,124.8,429.2,124.8L429.2,124.8z"/>
				</g>
			</g>
			<g>
				<g>
					<path class="st5" d="M431.1,127.6c0.6,0,0.6-0.9,0-0.9C430.6,126.7,430.6,127.6,431.1,127.6L431.1,127.6z"/>
				</g>
			</g>
			<g>
				<g>
					<path class="st5" d="M432.8,123.9c0.6,0,0.6-0.9,0-0.9C432.3,123.1,432.2,123.9,432.8,123.9L432.8,123.9z"/>
				</g>
			</g>
			<g>
				<g>
					<path class="st5" d="M435,127.8c0.6,0,0.6-0.9,0-0.9C434.5,127,434.5,127.8,435,127.8L435,127.8z"/>
				</g>
			</g>
			<g>
				<g>
					<path class="st5" d="M432,125.9c0.6,0,0.6-0.9,0-0.9C431.4,125,431.4,125.9,432,125.9L432,125.9z"/>
				</g>
			</g>
			<g>
				<g>
					<path class="st5" d="M438.4,129.2c0.6,0,0.6-0.9,0-0.9C437.8,128.4,437.8,129.2,438.4,129.2L438.4,129.2z"/>
				</g>
			</g>
			<g>
				<g>
					<path class="st5" d="M436.4,127c0.6,0,0.6-0.9,0-0.9C435.9,126.1,435.9,127,436.4,127L436.4,127z"/>
				</g>
			</g>
			<g>
				<g>
					<path class="st5" d="M435.6,123.9c0.6,0,0.6-0.9,0-0.9C435,123.1,435,123.9,435.6,123.9L435.6,123.9z"/>
				</g>
			</g>
			<g>
				<g>
					<path class="st5" d="M368.1,99.6c5.8,2.4,8.7,8.5,13.1,12.6c0.4,0.4,1-0.2,0.6-0.6c-4.5-4.3-7.5-10.4-13.5-12.9
						C367.8,98.6,367.5,99.4,368.1,99.6L368.1,99.6z"/>
				</g>
			</g>
			<g>
				<g>
					<path class="st5" d="M387.5,72.2c0.2,5.9,1.9,13.1,7.8,15.6c4.7,2,10.3,1.1,14.2-2.3c0.4-0.4-0.2-1-0.6-0.6
						c-3.6,3.2-9.1,4-13.5,2c-5.3-2.5-6.8-9.3-7-14.7C388.3,71.7,387.5,71.7,387.5,72.2L387.5,72.2z"/>
				</g>
			</g>
			<g>
				<g>
					<path class="st5" d="M411.5,88.3c1.2,0,2.3,0,3.5,0c-0.1-0.1-0.3-0.3-0.4-0.4c0.1,1-0.3,1.8-1.2,2.4c-0.3,0.2-0.3,0.7,0.1,0.8
						c0.9,0.2,1.5-0.2,2.4-0.5c1.5-0.5,2.2,1.1,1.9,2.3c-0.2,0.7-0.6,1.3-0.9,1.9c-0.2,0.4,0.1,0.7,0.5,0.6c0.6-0.1,1.8-0.4,2.5-0.2
						c0.2,0,0.3,0,0.5,0c0.3,0.5,0.3,1,0,1.5c-0.3,1.2-0.8,2.3-1.2,3.4c-0.1,0.3,0.2,0.6,0.5,0.5c1,0.6,1.2,1.3,0.8,2
						c0,0,0,0.1,0,0.1c-0.1,0.2-0.1,0.5-0.1,0.7c0.1,0.4,0.2,0.7,0.6,0.9c0.2,0.1,0.4,0,0.6,0.1c0.6,0.2,0.6,0.4,0.8,1
						c0.4,1.2,0.7,2.3,1.1,3.5c0.1,0.3,0.4,0.4,0.6,0.3c0.9,0.4,1.2,1,0.8,1.8c-0.1,0.6,0.7,0.8,0.8,0.2c0.3-1.4-0.2-3.8-2.1-2.8
						c0.2,0.1,0.4,0.2,0.6,0.3c-0.3-0.8-0.5-1.6-0.8-2.4c-0.2-0.7-0.3-1.6-0.7-2.2c-0.1-0.2-0.2-0.4-0.5-0.5c-0.1,0-0.3,0-0.4-0.1
						c-0.5-0.4-0.5-0.8-0.3-1.4c0.4-1.4-0.5-2.9-2.2-2.4c0.2,0.2,0.4,0.4,0.5,0.5c0.4-1.1,0.8-2.3,1.2-3.4c0.2-0.6,0.5-1.4,0.1-2
						c-0.8-1.2-3.2-0.5-4.2-0.3c0.2,0.2,0.3,0.4,0.5,0.6c0.8-1.5,1.7-3.3,0.6-4.8c-0.3-0.4-0.8-0.8-1.3-0.9c-1.2-0.2-2,0.9-3.2,0.6
						c0,0.3,0.1,0.5,0.1,0.8c1.1-0.7,1.7-1.8,1.6-3.2c0-0.2-0.2-0.4-0.4-0.4c-1.2,0-2.3,0-3.5,0C410.9,87.5,410.9,88.3,411.5,88.3
						L411.5,88.3z"/>
				</g>
			</g>
			<g>
				<g>
					<path class="st5" d="M378.4,79c1.3,2.3,3.3,4.1,5.9,2.2c2.4-1.8,4.6-4.9,5.4-7.9c0.2-0.7,0.2-1.8-0.7-2
						c-1.1-0.3-2.8,1.3-3.6,1.9c-2.8,1.9-5.5,4.1-7.4,7c-0.3,0.5,0.4,0.9,0.8,0.4c2.4-3.2,5.2-6.2,8.3-8.8c-0.2-0.1-0.5-0.1-0.7-0.2
						c0.3,1.2-0.9,2.5-1.5,3.3c-0.6,0.9-1.3,1.8-2,2.6c-0.4,0.4,0.3,1.1,0.6,0.6c1-1.2,1.9-2.4,2.7-3.7c0.7-1,1.3-1.9,1-3.1
						c-0.1-0.3-0.5-0.4-0.7-0.2c-3.1,2.7-5.9,5.7-8.4,9c0.3,0.1,0.5,0.3,0.8,0.4c1.2-1.8,2.7-3.4,4.5-4.8c1-0.8,2-1.5,3-2.2
						c0.7-0.5,2.6-2.2,2.5-0.4c-0.1,1-0.9,2.3-1.5,3.1c-0.6,1-1.3,1.9-2.1,2.8c-0.9,0.9-2.2,2.3-3.6,1.8c-1.1-0.4-1.8-1.6-2.4-2.5
						C378.9,78.1,378.1,78.5,378.4,79L378.4,79z"/>
				</g>
			</g>
			<g>
				<g>
					<path class="st5" d="M438.3,126.5c0.5,1.1-0.1,2.3-1.1,2.8c-0.5,0.2-0.1,1,0.4,0.8c1.5-0.7,2.1-2.5,1.4-4
						C438.9,125.6,438.1,126,438.3,126.5L438.3,126.5z"/>
				</g>
			</g>
		</g>
	</g>
</g>
<g>
	<rect x="-395.7" y="63.3" style="fill:none;" width="361" height="96"/>
	<text transform="matrix(1 0 0 1 -395.7028 96.649)" style="font-family:'FranklinGothic-Heavy'; font-size:50px;">what the</text>
	<rect x="-237.7" y="179.3" style="fill:none;" width="200" height="96"/>
	<text transform="matrix(1 0 0 1 -237.7028 212.649)" style="font-family:'FranklinGothic-Heavy'; font-size:50px;">sneak??</text>
	<g>
		<rect x="-382.7" y="103.3" class="st0" width="79" height="79"/>
		<g>
			<g>
				<path class="st1" d="M-360.8,118.2c-4.8,4-8.5,9.1-11.1,14.8c-0.6,1.3-1.4,2.7-1.2,4.1c0.2,1.3,1.1,2.4,2,3.3
					c2.4,2.4,4.7,4.8,7.1,7.1c9.5,9.2,19.7,18.1,31.9,23.4c4.8,2.1,12.5,5,16.3-0.5c0.8-1.1,1-2.2,0.9-3.5c-0.1-0.7-0.2-1.6,0-2.3
					c0.2-0.7,0.9-1.2,1-1.9c0.3-1.3-0.9-2.5-1.6-3.4c-1-1.3-2.1-2.6-3.2-3.9c-2.1-2.4-4.1-4.9-5.5-7.8c-1.3-2.7-2.3-5.5-3.4-8.3
					c-1.9-5.1-4-10.7-8.5-14.1c-1.1-0.9-2.4-1.5-3.9-1.6c-1.7-0.2-3.4,0.2-5.1,0.5c-1.6,0.2-3.4,0.3-4.8-0.5
					c-1.2-0.7-1.5-1.7-1.7-2.9c-0.3-1.6-0.1-4.5-1.5-5.6c-1.6-1.3-4,0.1-5.3,1.1C-359.2,116.6-360.1,117.3-360.8,118.2
					c-0.3,0.3,0.2,0.8,0.5,0.5c1.3-1.6,3.7-3.6,5.8-3.6c2.2,0,2.1,3.7,2.3,5.3c0.3,1.9,0.8,3.3,2.7,4c2.8,1.1,5.6-0.1,8.4-0.2
					c6-0.2,9.6,7,11.6,11.8c2,4.8,3.3,9.9,6.1,14.3c1.6,2.5,3.6,4.7,5.6,7c1.1,1.2,2.3,2.5,3.1,3.9c0.7,1.2,0.2,1.6-0.4,2.6
					c-0.3,0.5-0.4,1.1-0.4,1.6c0,1.4,0.4,2.6-0.3,3.9c-0.6,1.3-1.9,2.3-3.2,2.9c-3.2,1.4-6.9,0.4-10-0.8
					c-11.5-4.4-21.4-12.1-30.4-20.5c-2.6-2.4-5.1-4.8-7.5-7.3c-1.2-1.2-2.5-2.5-3.7-3.7c-0.5-0.5-1.1-1.1-1.5-1.8
					c-0.6-1.1-0.4-2.2,0-3.2c2.4-6.3,6.5-11.9,11.7-16.3C-360,118.4-360.5,117.9-360.8,118.2L-360.8,118.2z"/>
			</g>
			<g>
				<path class="st1" d="M-372.3,131.3c6.6,7.5,13.9,14.5,21.7,20.8c3.8,3.1,7.6,6,11.7,8.7c3.9,2.6,8.1,5,12.6,6.5
					c2.4,0.8,4.9,1.3,7.4,1.4c1.4,0.1,4,0.1,4-1.9c0-0.4-0.7-0.4-0.7,0c0,2.2-5.3,1.1-6.4,0.9c-2.1-0.4-4.1-1-6.1-1.8
					c-4.2-1.6-8-4-11.7-6.6c-7.5-5.2-14.6-11.1-21.2-17.5c-3.7-3.6-7.3-7.3-10.7-11.1C-372.1,130.5-372.6,131-372.3,131.3
					L-372.3,131.3z"/>
			</g>
			<g>
				<path class="st1" d="M-368,131.1c6.8,6,13.6,11.9,20.4,17.9c3.3,2.9,6.5,5.8,9.9,8.6c3,2.5,6.2,4.8,9.8,6.2
					c1.9,0.8,4,1.3,6.1,1.5c1.8,0.2,3.8,0.2,5.3-1c0.3-0.3-0.1-0.7-0.5-0.5c-1.5,1.3-4.3,0.9-6.1,0.6c-1.9-0.3-3.7-0.9-5.5-1.7
					c-3.6-1.6-6.7-4-9.7-6.5c-6.3-5.4-12.5-10.9-18.7-16.4c-3.6-3.1-7.1-6.3-10.7-9.4C-367.8,130.4-368.3,130.8-368,131.1
					L-368,131.1z"/>
			</g>
			<g>
				<path class="st1" d="M-341.2,127.5c6.9,3.3,8.8,11.4,10.8,18.1c0.6,1.8,1,3.7,1.7,5.5c0.4,1.2,1.1,2.3,2.3,2.8
					c0.8,0.4,2.3,0.4,2.8-0.6c0.3-0.7-0.2-1.4-0.9-1.4c-0.4,0-0.4,0.6,0,0.7c0.1,0.7-0.1,1-0.5,1c-0.3,0-0.6,0-0.8-0.1
					c-0.4-0.1-0.8-0.4-1.1-0.7c-0.6-0.6-0.9-1.3-1.2-2.1c-0.5-1.4-0.9-2.9-1.3-4.3c-0.8-2.8-1.6-5.6-2.6-8.4
					c-1.7-4.5-4.3-8.8-8.7-11C-341.2,126.7-341.6,127.3-341.2,127.5L-341.2,127.5z"/>
			</g>
			<g>
				<path class="st1" d="M-356.9,138.9c1.3-1.4,3-2.5,4.9-2.8c2-0.4,4.1,0,6.1,0c3.6,0,7.2-0.8,10.5-2.4c0.4-0.2,0-0.8-0.3-0.6
					c-3.8,1.9-7.9,2.5-12.1,2.2c-3.7-0.2-6.9,0.3-9.5,3.1C-357.6,138.8-357.1,139.2-356.9,138.9L-356.9,138.9z"/>
			</g>
			<g>
				<path class="st1" d="M-340.6,152.9c1.7-1.4,3.5-2.9,5.7-3.3c2.1-0.4,4.2,0.3,6.3-0.4c0.4-0.1,0.2-0.8-0.2-0.6
					c-2.3,0.8-4.7-0.1-7,0.6c-2,0.6-3.7,2-5.3,3.3C-341.4,152.7-340.9,153.1-340.6,152.9L-340.6,152.9z"/>
			</g>
			<g>
				<path class="st1" d="M-328.7,152.9c-1-0.7-2.3,0.1-2.5,1.2c-0.2,1.8,1.6,3,2.8,4c3.4,2.6,7.5,4.4,11.8,3.3
					c0.4-0.1,0.2-0.7-0.2-0.6c-2.9,0.7-5.9,0-8.4-1.4c-1.2-0.7-2.4-1.5-3.4-2.3c-0.5-0.4-1-0.8-1.4-1.3c-0.3-0.3-0.6-0.9-0.6-1.3
					c0-0.8,0.7-1.6,1.5-1C-328.7,153.7-328.4,153.1-328.7,152.9L-328.7,152.9z"/>
			</g>
			<g>
				<path class="st1" d="M-327.3,156c0.4,0,0.4-0.7,0-0.7C-327.7,155.4-327.7,156-327.3,156L-327.3,156z"/>
			</g>
			<g>
				<path class="st1" d="M-325.2,157.5c0.4,0,0.4-0.7,0-0.7C-325.6,156.8-325.6,157.5-325.2,157.5L-325.2,157.5z"/>
			</g>
			<g>
				<path class="st1" d="M-324.1,156.2c0.4,0,0.4-0.7,0-0.7C-324.6,155.6-324.6,156.2-324.1,156.2L-324.1,156.2z"/>
			</g>
			<g>
				<path class="st1" d="M-322.7,158.3c0.4,0,0.4-0.7,0-0.7C-323.1,157.7-323.1,158.3-322.7,158.3L-322.7,158.3z"/>
			</g>
			<g>
				<path class="st1" d="M-321.4,155.6c0.4,0,0.4-0.7,0-0.7C-321.8,154.9-321.8,155.6-321.4,155.6L-321.4,155.6z"/>
			</g>
			<g>
				<path class="st1" d="M-319.7,158.5c0.4,0,0.4-0.7,0-0.7C-320.2,157.9-320.2,158.5-319.7,158.5L-319.7,158.5z"/>
			</g>
			<g>
				<path class="st1" d="M-322,157.1c0.4,0,0.4-0.7,0-0.7C-322.5,156.4-322.5,157.1-322,157.1L-322,157.1z"/>
			</g>
			<g>
				<path class="st1" d="M-317.2,159.6c0.4,0,0.4-0.7,0-0.7C-317.6,158.9-317.6,159.6-317.2,159.6L-317.2,159.6z"/>
			</g>
			<g>
				<path class="st1" d="M-318.7,157.9c0.4,0,0.4-0.7,0-0.7C-319.1,157.3-319.1,157.9-318.7,157.9L-318.7,157.9z"/>
			</g>
			<g>
				<path class="st1" d="M-319.3,155.6c0.4,0,0.4-0.7,0-0.7C-319.7,154.9-319.7,155.6-319.3,155.6L-319.3,155.6z"/>
			</g>
			<g>
				<path class="st1" d="M-370.2,137.3c4.3,1.8,6.6,6.4,9.8,9.5c0.3,0.3,0.8-0.2,0.5-0.5c-3.4-3.2-5.6-7.8-10.1-9.7
					C-370.4,136.5-370.5,137.2-370.2,137.3L-370.2,137.3z"/>
			</g>
			<g>
				<path class="st1" d="M-355.5,116.7c0.1,4.4,1.4,9.8,5.9,11.7c3.5,1.5,7.8,0.8,10.7-1.7c0.3-0.3-0.1-0.7-0.5-0.5
					c-2.7,2.4-6.8,3-10.1,1.5c-4-1.9-5.1-7-5.2-11C-354.9,116.3-355.6,116.3-355.5,116.7L-355.5,116.7z"/>
			</g>
			<g>
				<path class="st1" d="M-337.5,128.8c0.9,0,1.7,0,2.6,0c-0.1-0.1-0.2-0.2-0.3-0.3c0.1,0.8-0.2,1.4-0.9,1.8
					c-0.2,0.1-0.2,0.5,0.1,0.6c0.7,0.1,1.1-0.2,1.8-0.4c1.2-0.4,1.7,0.8,1.4,1.8c-0.1,0.5-0.4,1-0.7,1.5c-0.2,0.3,0.1,0.5,0.4,0.5
					c0.5-0.1,1.4-0.3,1.9-0.2c0.1,0,0.3,0,0.4,0c0.2,0.4,0.2,0.7,0,1.1c-0.2,0.9-0.6,1.7-0.9,2.6c-0.1,0.2,0.2,0.5,0.4,0.4
					c0.7,0.5,0.9,1,0.6,1.5c0,0,0,0.1,0,0.1c0,0.2-0.1,0.4,0,0.5c0,0.3,0.2,0.5,0.4,0.7c0.2,0.1,0.3,0,0.4,0.1
					c0.4,0.1,0.5,0.3,0.6,0.8c0.3,0.9,0.6,1.8,0.8,2.7c0.1,0.2,0.3,0.3,0.5,0.2c0.7,0.3,0.9,0.8,0.6,1.4c-0.1,0.4,0.6,0.6,0.6,0.2
					c0.2-1-0.1-2.9-1.6-2.1c0.2,0.1,0.3,0.1,0.5,0.2c-0.2-0.6-0.4-1.2-0.6-1.8c-0.2-0.5-0.3-1.2-0.5-1.7c-0.1-0.1-0.2-0.3-0.4-0.4
					c-0.1,0-0.2,0-0.3,0c-0.4-0.3-0.3-0.6-0.2-1c0.3-1.1-0.3-2.2-1.6-1.8c0.1,0.1,0.3,0.3,0.4,0.4c0.3-0.9,0.6-1.7,0.9-2.6
					c0.1-0.5,0.4-1.1,0.1-1.5c-0.6-0.9-2.4-0.4-3.2-0.3c0.1,0.2,0.2,0.3,0.4,0.5c0.6-1.1,1.3-2.5,0.4-3.6c-0.2-0.3-0.6-0.6-1-0.6
					c-0.9-0.2-1.5,0.7-2.4,0.5c0,0.2,0.1,0.4,0.1,0.6c0.9-0.5,1.3-1.4,1.2-2.4c0-0.2-0.1-0.3-0.3-0.3c-0.9,0-1.7,0-2.6,0
					C-337.9,128.1-337.9,128.8-337.5,128.8L-337.5,128.8z"/>
			</g>
			<g>
				<path class="st1" d="M-362.3,121.8c1,1.7,2.5,3.1,4.4,1.7c1.8-1.4,3.5-3.7,4-5.9c0.1-0.5,0.2-1.3-0.5-1.5
					c-0.9-0.2-2.1,1-2.7,1.4c-2.1,1.5-4.2,3.1-5.6,5.3c-0.2,0.4,0.3,0.7,0.6,0.3c1.8-2.4,3.9-4.6,6.2-6.6c-0.2,0-0.4-0.1-0.6-0.1
					c0.2,0.9-0.7,1.9-1.1,2.5c-0.5,0.7-1,1.3-1.5,2c-0.3,0.3,0.2,0.8,0.5,0.5c0.7-0.9,1.4-1.8,2.1-2.8c0.5-0.7,1-1.4,0.7-2.4
					c-0.1-0.3-0.4-0.3-0.6-0.1c-2.4,2-4.5,4.3-6.3,6.8c0.2,0.1,0.4,0.2,0.6,0.3c0.9-1.4,2.1-2.6,3.4-3.6c0.7-0.6,1.5-1.1,2.3-1.7
					c0.5-0.3,2-1.7,1.9-0.3c0,0.7-0.7,1.7-1.1,2.4c-0.5,0.7-1,1.4-1.6,2.1c-0.7,0.7-1.7,1.7-2.7,1.4c-0.8-0.3-1.4-1.2-1.8-1.9
					C-362,121.1-362.6,121.4-362.3,121.8L-362.3,121.8z"/>
			</g>
			<g>
				<path class="st1" d="M-317.3,157.6c0.4,0.8,0,1.7-0.8,2.1c-0.4,0.2,0,0.8,0.3,0.6c1.1-0.5,1.6-1.9,1.1-3
					C-316.9,156.8-317.4,157.2-317.3,157.6L-317.3,157.6z"/>
			</g>
		</g>
		<rect x="-299" y="103.3" class="st2" width="79" height="79"/>
		<g>
			<g>
				<path class="st3" d="M-277,118.2c-4.8,4-8.5,9.1-11.1,14.8c-0.6,1.3-1.4,2.7-1.2,4.1c0.2,1.3,1.1,2.4,2,3.3
					c2.4,2.4,4.7,4.8,7.1,7.1c9.5,9.2,19.7,18.1,31.9,23.4c4.8,2.1,12.5,5,16.3-0.5c0.8-1.1,1-2.2,0.9-3.5c-0.1-0.7-0.2-1.6,0-2.3
					c0.2-0.7,0.9-1.2,1-1.9c0.3-1.3-0.9-2.5-1.6-3.4c-1-1.3-2.1-2.6-3.2-3.9c-2.1-2.4-4.1-4.9-5.5-7.8c-1.3-2.7-2.3-5.5-3.4-8.3
					c-1.9-5.1-4-10.7-8.5-14.1c-1.1-0.9-2.4-1.5-3.9-1.6c-1.7-0.2-3.4,0.2-5.1,0.5c-1.6,0.2-3.4,0.3-4.8-0.5
					c-1.2-0.7-1.5-1.7-1.7-2.9c-0.3-1.6-0.1-4.5-1.5-5.6c-1.6-1.3-4,0.1-5.3,1.1C-275.5,116.6-276.3,117.3-277,118.2
					c-0.3,0.3,0.2,0.8,0.5,0.5c1.3-1.6,3.7-3.6,5.8-3.6c2.2,0,2.1,3.7,2.3,5.3c0.3,1.9,0.8,3.3,2.7,4c2.8,1.1,5.6-0.1,8.4-0.2
					c6-0.2,9.6,7,11.6,11.8c2,4.8,3.3,9.9,6.1,14.3c1.6,2.5,3.6,4.7,5.6,7c1.1,1.2,2.3,2.5,3.1,3.9c0.7,1.2,0.2,1.6-0.4,2.6
					c-0.3,0.5-0.4,1.1-0.4,1.6c0,1.4,0.4,2.6-0.3,3.9c-0.6,1.3-1.9,2.3-3.2,2.9c-3.2,1.4-6.9,0.4-10-0.8
					c-11.5-4.4-21.4-12.1-30.4-20.5c-2.6-2.4-5.1-4.8-7.5-7.3c-1.2-1.2-2.5-2.5-3.7-3.7c-0.5-0.5-1.1-1.1-1.5-1.8
					c-0.6-1.1-0.4-2.2,0-3.2c2.4-6.3,6.5-11.9,11.7-16.3C-276.2,118.4-276.7,117.9-277,118.2L-277,118.2z"/>
			</g>
			<g>
				<path class="st3" d="M-288.5,131.3c6.6,7.5,13.9,14.5,21.7,20.8c3.8,3.1,7.6,6,11.7,8.7c3.9,2.6,8.1,5,12.6,6.5
					c2.4,0.8,4.9,1.3,7.4,1.4c1.4,0.1,4,0.1,4-1.9c0-0.4-0.7-0.4-0.7,0c0,2.2-5.3,1.1-6.4,0.9c-2.1-0.4-4.1-1-6.1-1.8
					c-4.2-1.6-8-4-11.7-6.6c-7.5-5.2-14.6-11.1-21.2-17.5c-3.7-3.6-7.3-7.3-10.7-11.1C-288.4,130.5-288.8,131-288.5,131.3
					L-288.5,131.3z"/>
			</g>
			<g>
				<path class="st3" d="M-284.2,131.1c6.8,6,13.6,11.9,20.4,17.9c3.3,2.9,6.5,5.8,9.9,8.6c3,2.5,6.2,4.8,9.8,6.2
					c1.9,0.8,4,1.3,6.1,1.5c1.8,0.2,3.8,0.2,5.3-1c0.3-0.3-0.1-0.7-0.5-0.5c-1.5,1.3-4.3,0.9-6.1,0.6c-1.9-0.3-3.7-0.9-5.5-1.7
					c-3.6-1.6-6.7-4-9.7-6.5c-6.3-5.4-12.5-10.9-18.7-16.4c-3.6-3.1-7.1-6.3-10.7-9.4C-284.1,130.4-284.5,130.8-284.2,131.1
					L-284.2,131.1z"/>
			</g>
			<g>
				<path class="st3" d="M-257.4,127.5c6.9,3.3,8.8,11.4,10.8,18.1c0.6,1.8,1,3.7,1.7,5.5c0.4,1.2,1.1,2.3,2.3,2.8
					c0.8,0.4,2.3,0.4,2.8-0.6c0.3-0.7-0.2-1.4-0.9-1.4c-0.4,0-0.4,0.6,0,0.7c0.1,0.7-0.1,1-0.5,1c-0.3,0-0.6,0-0.8-0.1
					c-0.4-0.1-0.8-0.4-1.1-0.7c-0.6-0.6-0.9-1.3-1.2-2.1c-0.5-1.4-0.9-2.9-1.3-4.3c-0.8-2.8-1.6-5.6-2.6-8.4
					c-1.7-4.5-4.3-8.8-8.7-11C-257.5,126.7-257.8,127.3-257.4,127.5L-257.4,127.5z"/>
			</g>
			<g>
				<path class="st3" d="M-273.1,138.9c1.3-1.4,3-2.5,4.9-2.8c2-0.4,4.1,0,6.1,0c3.6,0,7.2-0.8,10.5-2.4c0.4-0.2,0-0.8-0.3-0.6
					c-3.8,1.9-7.9,2.5-12.1,2.2c-3.7-0.2-6.9,0.3-9.5,3.1C-273.8,138.8-273.4,139.2-273.1,138.9L-273.1,138.9z"/>
			</g>
			<g>
				<path class="st3" d="M-256.8,152.9c1.7-1.4,3.5-2.9,5.7-3.3c2.1-0.4,4.2,0.3,6.3-0.4c0.4-0.1,0.2-0.8-0.2-0.6
					c-2.3,0.8-4.7-0.1-7,0.6c-2,0.6-3.7,2-5.3,3.3C-257.6,152.7-257.1,153.1-256.8,152.9L-256.8,152.9z"/>
			</g>
			<g>
				<path class="st3" d="M-245,152.9c-1-0.7-2.3,0.1-2.5,1.2c-0.2,1.8,1.6,3,2.8,4c3.4,2.6,7.5,4.4,11.8,3.3
					c0.4-0.1,0.2-0.7-0.2-0.6c-2.9,0.7-5.9,0-8.4-1.4c-1.2-0.7-2.4-1.5-3.4-2.3c-0.5-0.4-1-0.8-1.4-1.3c-0.3-0.3-0.6-0.9-0.6-1.3
					c0-0.8,0.7-1.6,1.5-1C-245,153.7-244.6,153.1-245,152.9L-245,152.9z"/>
			</g>
			<g>
				<path class="st3" d="M-243.5,156c0.4,0,0.4-0.7,0-0.7C-243.9,155.4-243.9,156-243.5,156L-243.5,156z"/>
			</g>
			<g>
				<path class="st3" d="M-241.4,157.5c0.4,0,0.4-0.7,0-0.7C-241.8,156.8-241.9,157.5-241.4,157.5L-241.4,157.5z"/>
			</g>
			<g>
				<path class="st3" d="M-240.4,156.2c0.4,0,0.4-0.7,0-0.7C-240.8,155.6-240.8,156.2-240.4,156.2L-240.4,156.2z"/>
			</g>
			<g>
				<path class="st3" d="M-238.9,158.3c0.4,0,0.4-0.7,0-0.7C-239.3,157.7-239.3,158.3-238.9,158.3L-238.9,158.3z"/>
			</g>
			<g>
				<path class="st3" d="M-237.6,155.6c0.4,0,0.4-0.7,0-0.7C-238.1,154.9-238.1,155.6-237.6,155.6L-237.6,155.6z"/>
			</g>
			<g>
				<path class="st3" d="M-236,158.5c0.4,0,0.4-0.7,0-0.7C-236.4,157.9-236.4,158.5-236,158.5L-236,158.5z"/>
			</g>
			<g>
				<path class="st3" d="M-238.3,157.1c0.4,0,0.4-0.7,0-0.7C-238.7,156.4-238.7,157.1-238.3,157.1L-238.3,157.1z"/>
			</g>
			<g>
				<path class="st3" d="M-233.5,159.6c0.4,0,0.4-0.7,0-0.7C-233.9,158.9-233.9,159.6-233.5,159.6L-233.5,159.6z"/>
			</g>
			<g>
				<path class="st3" d="M-234.9,157.9c0.4,0,0.4-0.7,0-0.7C-235.3,157.3-235.3,157.9-234.9,157.9L-234.9,157.9z"/>
			</g>
			<g>
				<path class="st3" d="M-235.6,155.6c0.4,0,0.4-0.7,0-0.7C-236,154.9-236,155.6-235.6,155.6L-235.6,155.6z"/>
			</g>
			<g>
				<path class="st3" d="M-286.4,137.3c4.3,1.8,6.6,6.4,9.8,9.5c0.3,0.3,0.8-0.2,0.5-0.5c-3.4-3.2-5.6-7.8-10.1-9.7
					C-286.6,136.5-286.8,137.2-286.4,137.3L-286.4,137.3z"/>
			</g>
			<g>
				<path class="st3" d="M-271.8,116.7c0.1,4.4,1.4,9.8,5.9,11.7c3.5,1.5,7.8,0.8,10.7-1.7c0.3-0.3-0.1-0.7-0.5-0.5
					c-2.7,2.4-6.8,3-10.1,1.5c-4-1.9-5.1-7-5.2-11C-271.1,116.3-271.8,116.3-271.8,116.7L-271.8,116.7z"/>
			</g>
			<g>
				<path class="st3" d="M-253.7,128.8c0.9,0,1.7,0,2.6,0c-0.1-0.1-0.2-0.2-0.3-0.3c0.1,0.8-0.2,1.4-0.9,1.8
					c-0.2,0.1-0.2,0.5,0.1,0.6c0.7,0.1,1.1-0.2,1.8-0.4c1.2-0.4,1.7,0.8,1.4,1.8c-0.1,0.5-0.4,1-0.7,1.5c-0.2,0.3,0.1,0.5,0.4,0.5
					c0.5-0.1,1.4-0.3,1.9-0.2c0.1,0,0.3,0,0.4,0c0.2,0.4,0.2,0.7,0,1.1c-0.2,0.9-0.6,1.7-0.9,2.6c-0.1,0.2,0.2,0.5,0.4,0.4
					c0.7,0.5,0.9,1,0.6,1.5c0,0,0,0.1,0,0.1c0,0.2-0.1,0.4,0,0.5c0,0.3,0.2,0.5,0.4,0.7c0.2,0.1,0.3,0,0.4,0.1
					c0.4,0.1,0.5,0.3,0.6,0.8c0.3,0.9,0.6,1.8,0.8,2.7c0.1,0.2,0.3,0.3,0.5,0.2c0.7,0.3,0.9,0.8,0.6,1.4c-0.1,0.4,0.6,0.6,0.6,0.2
					c0.2-1-0.1-2.9-1.6-2.1c0.2,0.1,0.3,0.1,0.5,0.2c-0.2-0.6-0.4-1.2-0.6-1.8c-0.2-0.5-0.3-1.2-0.5-1.7c-0.1-0.1-0.2-0.3-0.4-0.4
					c-0.1,0-0.2,0-0.3,0c-0.4-0.3-0.3-0.6-0.2-1c0.3-1.1-0.3-2.2-1.6-1.8c0.1,0.1,0.3,0.3,0.4,0.4c0.3-0.9,0.6-1.7,0.9-2.6
					c0.1-0.5,0.4-1.1,0.1-1.5c-0.6-0.9-2.4-0.4-3.2-0.3c0.1,0.2,0.2,0.3,0.4,0.5c0.6-1.1,1.3-2.5,0.4-3.6c-0.2-0.3-0.6-0.6-1-0.6
					c-0.9-0.2-1.5,0.7-2.4,0.5c0,0.2,0.1,0.4,0.1,0.6c0.9-0.5,1.3-1.4,1.2-2.4c0-0.2-0.1-0.3-0.3-0.3c-0.9,0-1.7,0-2.6,0
					C-254.1,128.1-254.1,128.8-253.7,128.8L-253.7,128.8z"/>
			</g>
			<g>
				<path class="st3" d="M-278.6,121.8c1,1.7,2.5,3.1,4.4,1.7c1.8-1.4,3.5-3.7,4-5.9c0.1-0.5,0.2-1.3-0.5-1.5
					c-0.9-0.2-2.1,1-2.7,1.4c-2.1,1.5-4.2,3.1-5.6,5.3c-0.2,0.4,0.3,0.7,0.6,0.3c1.8-2.4,3.9-4.6,6.2-6.6c-0.2,0-0.4-0.1-0.6-0.1
					c0.2,0.9-0.7,1.9-1.1,2.5c-0.5,0.7-1,1.3-1.5,2c-0.3,0.3,0.2,0.8,0.5,0.5c0.7-0.9,1.4-1.8,2.1-2.8c0.5-0.7,1-1.4,0.7-2.4
					c-0.1-0.3-0.4-0.3-0.6-0.1c-2.4,2-4.5,4.3-6.3,6.8c0.2,0.1,0.4,0.2,0.6,0.3c0.9-1.4,2.1-2.6,3.4-3.6c0.7-0.6,1.5-1.1,2.3-1.7
					c0.5-0.3,2-1.7,1.9-0.3c0,0.7-0.7,1.7-1.1,2.4c-0.5,0.7-1,1.4-1.6,2.1c-0.7,0.7-1.7,1.7-2.7,1.4c-0.8-0.3-1.4-1.2-1.8-1.9
					C-278.2,121.1-278.8,121.4-278.6,121.8L-278.6,121.8z"/>
			</g>
			<g>
				<path class="st3" d="M-233.5,157.6c0.4,0.8,0,1.7-0.8,2.1c-0.4,0.2,0,0.8,0.3,0.6c1.1-0.5,1.6-1.9,1.1-3
					C-233.1,156.8-233.7,157.2-233.5,157.6L-233.5,157.6z"/>
			</g>
		</g>
		<rect x="-215.2" y="103.3" class="st4" width="79" height="79"/>
		<g>
			<g>
				<path class="st0" d="M-193.2,118.2c-4.8,4-8.5,9.1-11.1,14.8c-0.6,1.3-1.4,2.7-1.2,4.1c0.2,1.3,1.1,2.4,2,3.3
					c2.4,2.4,4.7,4.8,7.1,7.1c9.5,9.2,19.7,18.1,31.9,23.4c4.8,2.1,12.5,5,16.3-0.5c0.8-1.1,1-2.2,0.9-3.5c-0.1-0.7-0.2-1.6,0-2.3
					c0.2-0.7,0.9-1.2,1-1.9c0.3-1.3-0.9-2.5-1.6-3.4c-1-1.3-2.1-2.6-3.2-3.9c-2.1-2.4-4.1-4.9-5.5-7.8c-1.3-2.7-2.3-5.5-3.4-8.3
					c-1.9-5.1-4-10.7-8.5-14.1c-1.1-0.9-2.4-1.5-3.9-1.6c-1.7-0.2-3.4,0.2-5.1,0.5c-1.6,0.2-3.4,0.3-4.8-0.5
					c-1.2-0.7-1.5-1.7-1.7-2.9c-0.3-1.6-0.1-4.5-1.5-5.6c-1.6-1.3-4,0.1-5.3,1.1C-191.7,116.6-192.5,117.3-193.2,118.2
					c-0.3,0.3,0.2,0.8,0.5,0.5c1.3-1.6,3.7-3.6,5.8-3.6c2.2,0,2.1,3.7,2.3,5.3c0.3,1.9,0.8,3.3,2.7,4c2.8,1.1,5.6-0.1,8.4-0.2
					c6-0.2,9.6,7,11.6,11.8c2,4.8,3.3,9.9,6.1,14.3c1.6,2.5,3.6,4.7,5.6,7c1.1,1.2,2.3,2.5,3.1,3.9c0.7,1.2,0.2,1.6-0.4,2.6
					c-0.3,0.5-0.4,1.1-0.4,1.6c0,1.4,0.4,2.6-0.3,3.9c-0.6,1.3-1.9,2.3-3.2,2.9c-3.2,1.4-6.9,0.4-10-0.8
					c-11.5-4.4-21.4-12.1-30.4-20.5c-2.6-2.4-5.1-4.8-7.5-7.3c-1.2-1.2-2.5-2.5-3.7-3.7c-0.5-0.5-1.1-1.1-1.5-1.8
					c-0.6-1.1-0.4-2.2,0-3.2c2.4-6.3,6.5-11.9,11.7-16.3C-192.5,118.4-192.9,117.9-193.2,118.2L-193.2,118.2z"/>
			</g>
			<g>
				<path class="st0" d="M-204.8,131.3c6.6,7.5,13.9,14.5,21.7,20.8c3.8,3.1,7.6,6,11.7,8.7c3.9,2.6,8.1,5,12.6,6.5
					c2.4,0.8,4.9,1.3,7.4,1.4c1.4,0.1,4,0.1,4-1.9c0-0.4-0.7-0.4-0.7,0c0,2.2-5.3,1.1-6.4,0.9c-2.1-0.4-4.1-1-6.1-1.8
					c-4.2-1.6-8-4-11.7-6.6c-7.5-5.2-14.6-11.1-21.2-17.5c-3.7-3.6-7.3-7.3-10.7-11.1C-204.6,130.5-205.1,131-204.8,131.3
					L-204.8,131.3z"/>
			</g>
			<g>
				<path class="st0" d="M-200.4,131.1c6.8,6,13.6,11.9,20.4,17.9c3.3,2.9,6.5,5.8,9.9,8.6c3,2.5,6.2,4.8,9.8,6.2
					c1.9,0.8,4,1.3,6.1,1.5c1.8,0.2,3.8,0.2,5.3-1c0.3-0.3-0.1-0.7-0.5-0.5c-1.5,1.3-4.3,0.9-6.1,0.6c-1.9-0.3-3.7-0.9-5.5-1.7
					c-3.6-1.6-6.7-4-9.7-6.5c-6.3-5.4-12.5-10.9-18.7-16.4c-3.6-3.1-7.1-6.3-10.7-9.4C-200.3,130.4-200.8,130.8-200.4,131.1
					L-200.4,131.1z"/>
			</g>
			<g>
				<path class="st0" d="M-173.6,127.5c6.9,3.3,8.8,11.4,10.8,18.1c0.6,1.8,1,3.7,1.7,5.5c0.4,1.2,1.1,2.3,2.3,2.8
					c0.8,0.4,2.3,0.4,2.8-0.6c0.3-0.7-0.2-1.4-0.9-1.4c-0.4,0-0.4,0.6,0,0.7c0.1,0.7-0.1,1-0.5,1c-0.3,0-0.6,0-0.8-0.1
					c-0.4-0.1-0.8-0.4-1.1-0.7c-0.6-0.6-0.9-1.3-1.2-2.1c-0.5-1.4-0.9-2.9-1.3-4.3c-0.8-2.8-1.6-5.6-2.6-8.4
					c-1.7-4.5-4.3-8.8-8.7-11C-173.7,126.7-174,127.3-173.6,127.5L-173.6,127.5z"/>
			</g>
			<g>
				<path class="st0" d="M-189.3,138.9c1.3-1.4,3-2.5,4.9-2.8c2-0.4,4.1,0,6.1,0c3.6,0,7.2-0.8,10.5-2.4c0.4-0.2,0-0.8-0.3-0.6
					c-3.8,1.9-7.9,2.5-12.1,2.2c-3.7-0.2-6.9,0.3-9.5,3.1C-190.1,138.8-189.6,139.2-189.3,138.9L-189.3,138.9z"/>
			</g>
			<g>
				<path class="st0" d="M-173,152.9c1.7-1.4,3.5-2.9,5.7-3.3c2.1-0.4,4.2,0.3,6.3-0.4c0.4-0.1,0.2-0.8-0.2-0.6
					c-2.3,0.8-4.7-0.1-7,0.6c-2,0.6-3.7,2-5.3,3.3C-173.8,152.7-173.4,153.1-173,152.9L-173,152.9z"/>
			</g>
			<g>
				<path class="st0" d="M-161.2,152.9c-1-0.7-2.3,0.1-2.5,1.2c-0.2,1.8,1.6,3,2.8,4c3.4,2.6,7.5,4.4,11.8,3.3
					c0.4-0.1,0.2-0.7-0.2-0.6c-2.9,0.7-5.9,0-8.4-1.4c-1.2-0.7-2.4-1.5-3.4-2.3c-0.5-0.4-1-0.8-1.4-1.3c-0.3-0.3-0.6-0.9-0.6-1.3
					c0-0.8,0.7-1.6,1.5-1C-161.2,153.7-160.9,153.1-161.2,152.9L-161.2,152.9z"/>
			</g>
			<g>
				<path class="st0" d="M-159.8,156c0.4,0,0.4-0.7,0-0.7C-160.2,155.4-160.2,156-159.8,156L-159.8,156z"/>
			</g>
			<g>
				<path class="st0" d="M-157.7,157.5c0.4,0,0.4-0.7,0-0.7C-158.1,156.8-158.1,157.5-157.7,157.5L-157.7,157.5z"/>
			</g>
			<g>
				<path class="st0" d="M-156.6,156.2c0.4,0,0.4-0.7,0-0.7C-157,155.6-157,156.2-156.6,156.2L-156.6,156.2z"/>
			</g>
			<g>
				<path class="st0" d="M-155.1,158.3c0.4,0,0.4-0.7,0-0.7C-155.6,157.7-155.6,158.3-155.1,158.3L-155.1,158.3z"/>
			</g>
			<g>
				<path class="st0" d="M-153.9,155.6c0.4,0,0.4-0.7,0-0.7C-154.3,154.9-154.3,155.6-153.9,155.6L-153.9,155.6z"/>
			</g>
			<g>
				<path class="st0" d="M-152.2,158.5c0.4,0,0.4-0.7,0-0.7C-152.6,157.9-152.6,158.5-152.2,158.5L-152.2,158.5z"/>
			</g>
			<g>
				<path class="st0" d="M-154.5,157.1c0.4,0,0.4-0.7,0-0.7C-154.9,156.4-154.9,157.1-154.5,157.1L-154.5,157.1z"/>
			</g>
			<g>
				<path class="st0" d="M-149.7,159.6c0.4,0,0.4-0.7,0-0.7C-150.1,158.9-150.1,159.6-149.7,159.6L-149.7,159.6z"/>
			</g>
			<g>
				<path class="st0" d="M-151.2,157.9c0.4,0,0.4-0.7,0-0.7C-151.6,157.3-151.6,157.9-151.2,157.9L-151.2,157.9z"/>
			</g>
			<g>
				<path class="st0" d="M-151.8,155.6c0.4,0,0.4-0.7,0-0.7C-152.2,154.9-152.2,155.6-151.8,155.6L-151.8,155.6z"/>
			</g>
			<g>
				<path class="st0" d="M-202.6,137.3c4.3,1.8,6.6,6.4,9.8,9.5c0.3,0.3,0.8-0.2,0.5-0.5c-3.4-3.2-5.6-7.8-10.1-9.7
					C-202.8,136.5-203,137.2-202.6,137.3L-202.6,137.3z"/>
			</g>
			<g>
				<path class="st0" d="M-188,116.7c0.1,4.4,1.4,9.8,5.9,11.7c3.5,1.5,7.8,0.8,10.7-1.7c0.3-0.3-0.1-0.7-0.5-0.5
					c-2.7,2.4-6.8,3-10.1,1.5c-4-1.9-5.1-7-5.2-11C-187.4,116.3-188,116.3-188,116.7L-188,116.7z"/>
			</g>
			<g>
				<path class="st0" d="M-169.9,128.8c0.9,0,1.7,0,2.6,0c-0.1-0.1-0.2-0.2-0.3-0.3c0.1,0.8-0.2,1.4-0.9,1.8
					c-0.2,0.1-0.2,0.5,0.1,0.6c0.7,0.1,1.1-0.2,1.8-0.4c1.2-0.4,1.7,0.8,1.4,1.8c-0.1,0.5-0.4,1-0.7,1.5c-0.2,0.3,0.1,0.5,0.4,0.5
					c0.5-0.1,1.4-0.3,1.9-0.2c0.1,0,0.3,0,0.4,0c0.2,0.4,0.2,0.7,0,1.1c-0.2,0.9-0.6,1.7-0.9,2.6c-0.1,0.2,0.2,0.5,0.4,0.4
					c0.7,0.5,0.9,1,0.6,1.5c0,0,0,0.1,0,0.1c0,0.2-0.1,0.4,0,0.5c0,0.3,0.2,0.5,0.4,0.7c0.2,0.1,0.3,0,0.4,0.1
					c0.4,0.1,0.5,0.3,0.6,0.8c0.3,0.9,0.6,1.8,0.8,2.7c0.1,0.2,0.3,0.3,0.5,0.2c0.7,0.3,0.9,0.8,0.6,1.4c-0.1,0.4,0.6,0.6,0.6,0.2
					c0.2-1-0.1-2.9-1.6-2.1c0.2,0.1,0.3,0.1,0.5,0.2c-0.2-0.6-0.4-1.2-0.6-1.8c-0.2-0.5-0.3-1.2-0.5-1.7c-0.1-0.1-0.2-0.3-0.4-0.4
					c-0.1,0-0.2,0-0.3,0c-0.4-0.3-0.3-0.6-0.2-1c0.3-1.1-0.3-2.2-1.6-1.8c0.1,0.1,0.3,0.3,0.4,0.4c0.3-0.9,0.6-1.7,0.9-2.6
					c0.1-0.5,0.4-1.1,0.1-1.5c-0.6-0.9-2.4-0.4-3.2-0.3c0.1,0.2,0.2,0.3,0.4,0.5c0.6-1.1,1.3-2.5,0.4-3.6c-0.2-0.3-0.6-0.6-1-0.6
					c-0.9-0.2-1.5,0.7-2.4,0.5c0,0.2,0.1,0.4,0.1,0.6c0.9-0.5,1.3-1.4,1.2-2.4c0-0.2-0.1-0.3-0.3-0.3c-0.9,0-1.7,0-2.6,0
					C-170.4,128.1-170.4,128.8-169.9,128.8L-169.9,128.8z"/>
			</g>
			<g>
				<path class="st0" d="M-194.8,121.8c1,1.7,2.5,3.1,4.4,1.7c1.8-1.4,3.5-3.7,4-5.9c0.1-0.5,0.2-1.3-0.5-1.5
					c-0.9-0.2-2.1,1-2.7,1.4c-2.1,1.5-4.2,3.1-5.6,5.3c-0.2,0.4,0.3,0.7,0.6,0.3c1.8-2.4,3.9-4.6,6.2-6.6c-0.2,0-0.4-0.1-0.6-0.1
					c0.2,0.9-0.7,1.9-1.1,2.5c-0.5,0.7-1,1.3-1.5,2c-0.3,0.3,0.2,0.8,0.5,0.5c0.7-0.9,1.4-1.8,2.1-2.8c0.5-0.7,1-1.4,0.7-2.4
					c-0.1-0.3-0.4-0.3-0.6-0.1c-2.4,2-4.5,4.3-6.3,6.8c0.2,0.1,0.4,0.2,0.6,0.3c0.9-1.4,2.1-2.6,3.4-3.6c0.7-0.6,1.5-1.1,2.3-1.7
					c0.5-0.3,2-1.7,1.9-0.3c0,0.7-0.7,1.7-1.1,2.4c-0.5,0.7-1,1.4-1.6,2.1c-0.7,0.7-1.7,1.7-2.7,1.4c-0.8-0.3-1.4-1.2-1.8-1.9
					C-194.5,121.1-195,121.4-194.8,121.8L-194.8,121.8z"/>
			</g>
			<g>
				<path class="st0" d="M-149.7,157.6c0.4,0.8,0,1.7-0.8,2.1c-0.4,0.2,0,0.8,0.3,0.6c1.1-0.5,1.6-1.9,1.1-3
					C-149.3,156.8-149.9,157.2-149.7,157.6L-149.7,157.6z"/>
			</g>
		</g>
		<rect x="-131.4" y="103.3" class="st1" width="79" height="79"/>
		<g>
			<g>
				<path class="st5" d="M-109.5,118.2c-4.8,4-8.5,9.1-11.1,14.8c-0.6,1.3-1.4,2.7-1.2,4.1c0.2,1.3,1.1,2.4,2,3.3
					c2.4,2.4,4.7,4.8,7.1,7.1c9.5,9.2,19.7,18.1,31.9,23.4c4.8,2.1,12.5,5,16.3-0.5c0.8-1.1,1-2.2,0.9-3.5c-0.1-0.7-0.2-1.6,0-2.3
					c0.2-0.7,0.9-1.2,1-1.9c0.3-1.3-0.9-2.5-1.6-3.4c-1-1.3-2.1-2.6-3.2-3.9c-2.1-2.4-4.1-4.9-5.5-7.8c-1.3-2.7-2.3-5.5-3.4-8.3
					c-1.9-5.1-4-10.7-8.5-14.1c-1.1-0.9-2.4-1.5-3.9-1.6c-1.7-0.2-3.4,0.2-5.1,0.5c-1.6,0.2-3.4,0.3-4.8-0.5
					c-1.2-0.7-1.5-1.7-1.7-2.9c-0.3-1.6-0.1-4.5-1.5-5.6c-1.6-1.3-4,0.1-5.3,1.1C-107.9,116.6-108.8,117.3-109.5,118.2
					c-0.3,0.3,0.2,0.8,0.5,0.5c1.3-1.6,3.7-3.6,5.8-3.6c2.2,0,2.1,3.7,2.3,5.3c0.3,1.9,0.8,3.3,2.7,4c2.8,1.1,5.6-0.1,8.4-0.2
					c6-0.2,9.6,7,11.6,11.8c2,4.8,3.3,9.9,6.1,14.3c1.6,2.5,3.6,4.7,5.6,7c1.1,1.2,2.3,2.5,3.1,3.9c0.7,1.2,0.2,1.6-0.4,2.6
					c-0.3,0.5-0.4,1.1-0.4,1.6c0,1.4,0.4,2.6-0.3,3.9c-0.6,1.3-1.9,2.3-3.2,2.9c-3.2,1.4-6.9,0.4-10-0.8
					c-11.5-4.4-21.4-12.1-30.4-20.5c-2.6-2.4-5.1-4.8-7.5-7.3c-1.2-1.2-2.5-2.5-3.7-3.7c-0.5-0.5-1.1-1.1-1.5-1.8
					c-0.6-1.1-0.4-2.2,0-3.2c2.4-6.3,6.5-11.9,11.7-16.3C-108.7,118.4-109.2,117.9-109.5,118.2L-109.5,118.2z"/>
			</g>
			<g>
				<path class="st5" d="M-121,131.3c6.6,7.5,13.9,14.5,21.7,20.8c3.8,3.1,7.6,6,11.7,8.7c3.9,2.6,8.1,5,12.6,6.5
					c2.4,0.8,4.9,1.3,7.4,1.4c1.4,0.1,4,0.1,4-1.9c0-0.4-0.7-0.4-0.7,0c0,2.2-5.3,1.1-6.4,0.9c-2.1-0.4-4.1-1-6.1-1.8
					c-4.2-1.6-8-4-11.7-6.6c-7.5-5.2-14.6-11.1-21.2-17.5c-3.7-3.6-7.3-7.3-10.7-11.1C-120.8,130.5-121.3,131-121,131.3L-121,131.3z
					"/>
			</g>
			<g>
				<path class="st5" d="M-116.7,131.1c6.8,6,13.6,11.9,20.4,17.9c3.3,2.9,6.5,5.8,9.9,8.6c3,2.5,6.2,4.8,9.8,6.2
					c1.9,0.8,4,1.3,6.1,1.5c1.8,0.2,3.8,0.2,5.3-1c0.3-0.3-0.1-0.7-0.5-0.5c-1.5,1.3-4.3,0.9-6.1,0.6c-1.9-0.3-3.7-0.9-5.5-1.7
					c-3.6-1.6-6.7-4-9.7-6.5c-6.3-5.4-12.5-10.9-18.7-16.4c-3.6-3.1-7.1-6.3-10.7-9.4C-116.5,130.4-117,130.8-116.7,131.1
					L-116.7,131.1z"/>
			</g>
			<g>
				<path class="st5" d="M-89.9,127.5c6.9,3.3,8.8,11.4,10.8,18.1c0.6,1.8,1,3.7,1.7,5.5c0.4,1.2,1.1,2.3,2.3,2.8
					c0.8,0.4,2.3,0.4,2.8-0.6c0.3-0.7-0.2-1.4-0.9-1.4c-0.4,0-0.4,0.6,0,0.7c0.1,0.7-0.1,1-0.5,1c-0.3,0-0.6,0-0.8-0.1
					c-0.4-0.1-0.8-0.4-1.1-0.7c-0.6-0.6-0.9-1.3-1.2-2.1c-0.5-1.4-0.9-2.9-1.3-4.3c-0.8-2.8-1.6-5.6-2.6-8.4
					c-1.7-4.5-4.3-8.8-8.7-11C-89.9,126.7-90.3,127.3-89.9,127.5L-89.9,127.5z"/>
			</g>
			<g>
				<path class="st5" d="M-105.6,138.9c1.3-1.4,3-2.5,4.9-2.8c2-0.4,4.1,0,6.1,0c3.6,0,7.2-0.8,10.5-2.4c0.4-0.2,0-0.8-0.3-0.6
					c-3.8,1.9-7.9,2.5-12.1,2.2c-3.7-0.2-6.9,0.3-9.5,3.1C-106.3,138.8-105.8,139.2-105.6,138.9L-105.6,138.9z"/>
			</g>
			<g>
				<path class="st5" d="M-89.3,152.9c1.7-1.4,3.5-2.9,5.7-3.3c2.1-0.4,4.2,0.3,6.3-0.4c0.4-0.1,0.2-0.8-0.2-0.6
					c-2.3,0.8-4.7-0.1-7,0.6c-2,0.6-3.7,2-5.3,3.3C-90.1,152.7-89.6,153.1-89.3,152.9L-89.3,152.9z"/>
			</g>
			<g>
				<path class="st5" d="M-77.4,152.9c-1-0.7-2.3,0.1-2.5,1.2c-0.2,1.8,1.6,3,2.8,4c3.4,2.6,7.5,4.4,11.8,3.3
					c0.4-0.1,0.2-0.7-0.2-0.6c-2.9,0.7-5.9,0-8.4-1.4c-1.2-0.7-2.4-1.5-3.4-2.3c-0.5-0.4-1-0.8-1.4-1.3c-0.3-0.3-0.6-0.9-0.6-1.3
					c0-0.8,0.7-1.6,1.5-1C-77.4,153.7-77.1,153.1-77.4,152.9L-77.4,152.9z"/>
			</g>
			<g>
				<path class="st5" d="M-76,156c0.4,0,0.4-0.7,0-0.7C-76.4,155.4-76.4,156-76,156L-76,156z"/>
			</g>
			<g>
				<path class="st5" d="M-73.9,157.5c0.4,0,0.4-0.7,0-0.7C-74.3,156.8-74.3,157.5-73.9,157.5L-73.9,157.5z"/>
			</g>
			<g>
				<path class="st5" d="M-72.8,156.2c0.4,0,0.4-0.7,0-0.7C-73.3,155.6-73.3,156.2-72.8,156.2L-72.8,156.2z"/>
			</g>
			<g>
				<path class="st5" d="M-71.4,158.3c0.4,0,0.4-0.7,0-0.7C-71.8,157.7-71.8,158.3-71.4,158.3L-71.4,158.3z"/>
			</g>
			<g>
				<path class="st5" d="M-70.1,155.6c0.4,0,0.4-0.7,0-0.7C-70.5,154.9-70.5,155.6-70.1,155.6L-70.1,155.6z"/>
			</g>
			<g>
				<path class="st5" d="M-68.4,158.5c0.4,0,0.4-0.7,0-0.7C-68.9,157.9-68.9,158.5-68.4,158.5L-68.4,158.5z"/>
			</g>
			<g>
				<path class="st5" d="M-70.7,157.1c0.4,0,0.4-0.7,0-0.7C-71.2,156.4-71.2,157.1-70.7,157.1L-70.7,157.1z"/>
			</g>
			<g>
				<path class="st5" d="M-65.9,159.6c0.4,0,0.4-0.7,0-0.7C-66.3,158.9-66.3,159.6-65.9,159.6L-65.9,159.6z"/>
			</g>
			<g>
				<path class="st5" d="M-67.4,157.9c0.4,0,0.4-0.7,0-0.7C-67.8,157.3-67.8,157.9-67.4,157.9L-67.4,157.9z"/>
			</g>
			<g>
				<path class="st5" d="M-68,155.6c0.4,0,0.4-0.7,0-0.7C-68.4,154.9-68.4,155.6-68,155.6L-68,155.6z"/>
			</g>
			<g>
				<path class="st5" d="M-118.9,137.3c4.3,1.8,6.6,6.4,9.8,9.5c0.3,0.3,0.8-0.2,0.5-0.5c-3.4-3.2-5.6-7.8-10.1-9.7
					C-119.1,136.5-119.2,137.2-118.9,137.3L-118.9,137.3z"/>
			</g>
			<g>
				<path class="st5" d="M-104.2,116.7c0.1,4.4,1.4,9.8,5.9,11.7c3.5,1.5,7.8,0.8,10.7-1.7c0.3-0.3-0.1-0.7-0.5-0.5
					c-2.7,2.4-6.8,3-10.1,1.5c-4-1.9-5.1-7-5.2-11C-103.6,116.3-104.3,116.3-104.2,116.7L-104.2,116.7z"/>
			</g>
			<g>
				<path class="st5" d="M-86.2,128.8c0.9,0,1.7,0,2.6,0c-0.1-0.1-0.2-0.2-0.3-0.3c0.1,0.8-0.2,1.4-0.9,1.8
					c-0.2,0.1-0.2,0.5,0.1,0.6c0.7,0.1,1.1-0.2,1.8-0.4c1.2-0.4,1.7,0.8,1.4,1.8c-0.1,0.5-0.4,1-0.7,1.5c-0.2,0.3,0.1,0.5,0.4,0.5
					c0.5-0.1,1.4-0.3,1.9-0.2c0.1,0,0.3,0,0.4,0c0.2,0.4,0.2,0.7,0,1.1c-0.2,0.9-0.6,1.7-0.9,2.6c-0.1,0.2,0.2,0.5,0.4,0.4
					c0.7,0.5,0.9,1,0.6,1.5c0,0,0,0.1,0,0.1c0,0.2-0.1,0.4,0,0.5c0,0.3,0.2,0.5,0.4,0.7c0.2,0.1,0.3,0,0.4,0.1
					c0.4,0.1,0.5,0.3,0.6,0.8c0.3,0.9,0.6,1.8,0.8,2.7c0.1,0.2,0.3,0.3,0.5,0.2c0.7,0.3,0.9,0.8,0.6,1.4c-0.1,0.4,0.6,0.6,0.6,0.2
					c0.2-1-0.1-2.9-1.6-2.1c0.2,0.1,0.3,0.1,0.5,0.2c-0.2-0.6-0.4-1.2-0.6-1.8c-0.2-0.5-0.3-1.2-0.5-1.7c-0.1-0.1-0.2-0.3-0.4-0.4
					c-0.1,0-0.2,0-0.3,0c-0.4-0.3-0.3-0.6-0.2-1c0.3-1.1-0.3-2.2-1.6-1.8c0.1,0.1,0.3,0.3,0.4,0.4c0.3-0.9,0.6-1.7,0.9-2.6
					c0.1-0.5,0.4-1.1,0.1-1.5c-0.6-0.9-2.4-0.4-3.2-0.3c0.1,0.2,0.2,0.3,0.4,0.5c0.6-1.1,1.3-2.5,0.4-3.6c-0.2-0.3-0.6-0.6-1-0.6
					c-0.9-0.2-1.5,0.7-2.4,0.5c0,0.2,0.1,0.4,0.1,0.6c0.9-0.5,1.3-1.4,1.2-2.4c0-0.2-0.1-0.3-0.3-0.3c-0.9,0-1.7,0-2.6,0
					C-86.6,128.1-86.6,128.8-86.2,128.8L-86.2,128.8z"/>
			</g>
			<g>
				<path class="st5" d="M-111,121.8c1,1.7,2.5,3.1,4.4,1.7c1.8-1.4,3.5-3.7,4-5.9c0.1-0.5,0.2-1.3-0.5-1.5c-0.9-0.2-2.1,1-2.7,1.4
					c-2.1,1.5-4.2,3.1-5.6,5.3c-0.2,0.4,0.3,0.7,0.6,0.3c1.8-2.4,3.9-4.6,6.2-6.6c-0.2,0-0.4-0.1-0.6-0.1c0.2,0.9-0.7,1.9-1.1,2.5
					c-0.5,0.7-1,1.3-1.5,2c-0.3,0.3,0.2,0.8,0.5,0.5c0.7-0.9,1.4-1.8,2.1-2.8c0.5-0.7,1-1.4,0.7-2.4c-0.1-0.3-0.4-0.3-0.6-0.1
					c-2.4,2-4.5,4.3-6.3,6.8c0.2,0.1,0.4,0.2,0.6,0.3c0.9-1.4,2.1-2.6,3.4-3.6c0.7-0.6,1.5-1.1,2.3-1.7c0.5-0.3,2-1.7,1.9-0.3
					c0,0.7-0.7,1.7-1.1,2.4c-0.5,0.7-1,1.4-1.6,2.1c-0.7,0.7-1.7,1.7-2.7,1.4c-0.8-0.3-1.4-1.2-1.8-1.9
					C-110.7,121.1-111.3,121.4-111,121.8L-111,121.8z"/>
			</g>
			<g>
				<path class="st5" d="M-66,157.6c0.4,0.8,0,1.7-0.8,2.1c-0.4,0.2,0,0.8,0.3,0.6c1.1-0.5,1.6-1.9,1.1-3
					C-65.6,156.8-66.1,157.2-66,157.6L-66,157.6z"/>
			</g>
		</g>
	</g>
</g>
</svg>
